{"glyphs":{"0":{"ha":892,"x_min":68,"x_max":825,"o":"m 446 -14 q 239 48 324 -14 q 111 217 154 110 q 68 464 68 325 q 111 710 68 603 q 239 880 154 818 q 446 942 324 942 q 653 880 569 942 q 781 710 738 818 q 825 464 825 603 q 781 217 825 325 q 653 48 738 110 q 446 -14 569 -14 m 446 101 q 569 141 515 101 q 652 261 622 181 q 682 464 682 342 q 652 668 682 588 q 569 788 622 749 q 446 828 515 828 q 324 788 378 828 q 240 667 271 747 q 210 464 210 588 q 240 261 210 342 q 324 141 271 181 q 446 101 378 101 z "},"1":{"ha":543,"x_min":40,"x_max":433,"o":"m 294 0 l 294 778 l 94 668 l 40 775 l 331 928 l 433 928 l 433 0 l 294 0 z "},"2":{"ha":769,"x_min":68,"x_max":703,"o":"m 68 0 l 68 115 l 464 486 q 526 568 507 528 q 546 646 546 608 q 522 742 546 701 q 458 805 499 782 q 360 828 417 828 q 248 800 303 828 q 121 717 193 772 l 68 817 q 213 912 140 882 q 365 942 285 942 q 533 906 460 942 q 647 804 606 871 q 689 646 689 738 q 657 528 689 588 q 547 399 625 469 l 246 115 l 703 115 l 703 0 l 68 0 z "},"3":{"ha":797,"x_min":68,"x_max":731,"o":"m 386 -14 q 215 16 292 -14 q 68 111 138 46 l 121 213 q 258 128 190 154 q 386 101 325 101 q 532 145 476 101 q 588 263 588 189 q 532 381 588 338 q 386 424 476 424 l 272 424 l 272 533 l 386 533 q 521 570 468 533 q 574 679 574 607 q 521 790 574 751 q 386 828 468 828 q 265 801 326 828 q 135 717 204 775 l 82 817 q 225 912 151 882 q 386 942 299 942 q 559 909 485 942 q 675 819 633 876 q 717 689 717 763 q 669 559 717 614 q 540 478 622 504 q 681 393 631 451 q 731 253 731 335 q 688 116 731 176 q 569 21 646 56 q 386 -14 492 -14 z "},"4":{"ha":864,"x_min":68,"x_max":797,"o":"m 540 0 l 540 218 l 68 218 l 68 356 l 526 928 l 675 928 l 675 331 l 797 331 l 797 218 l 675 218 l 675 0 l 540 0 m 188 331 l 540 331 l 540 779 l 188 331 z "},"5":{"ha":808,"x_min":68,"x_max":742,"o":"m 397 -14 q 266 -1 324 -14 q 161 41 208 13 q 68 111 114 69 l 122 210 q 255 126 192 151 q 383 101 318 101 q 542 153 485 101 q 599 297 599 206 q 542 441 599 389 q 383 493 485 493 q 269 466 315 493 q 204 388 222 439 l 85 410 l 179 942 l 672 942 l 672 828 l 285 828 l 233 549 q 313 588 267 575 q 410 601 358 601 q 589 563 515 601 q 702 457 663 525 q 742 300 742 389 q 700 140 742 211 q 581 28 658 69 q 397 -14 504 -14 z "},"6":{"ha":850,"x_min":68,"x_max":783,"o":"m 439 -14 q 242 33 326 -14 q 113 173 158 79 q 68 408 68 267 q 112 688 68 568 q 245 875 156 808 q 471 942 335 942 q 633 910 560 942 q 758 817 706 878 l 706 726 q 596 803 651 778 q 482 828 540 828 q 349 794 408 828 q 252 686 289 760 q 210 493 215 613 q 307 572 246 543 q 451 601 368 601 q 631 563 557 601 q 744 457 704 525 q 783 300 783 389 q 742 140 783 211 q 623 28 700 69 q 439 -14 546 -14 m 425 101 q 583 153 526 101 q 640 297 640 206 q 583 441 640 389 q 425 493 526 493 q 267 442 325 493 q 210 299 210 390 q 276 156 225 210 q 425 101 326 101 z "},"7":{"ha":714,"x_min":40,"x_max":675,"o":"m 164 0 l 539 814 l 40 814 l 40 928 l 675 928 l 675 828 l 299 0 l 164 0 z "},"8":{"ha":850,"x_min":68,"x_max":783,"o":"m 425 -14 q 232 21 313 -14 q 110 115 151 56 q 68 253 68 175 q 113 391 68 331 q 253 478 157 451 q 124 561 165 506 q 82 689 82 617 q 123 819 82 763 q 241 909 164 876 q 425 942 318 942 q 610 909 533 942 q 728 819 688 876 q 769 689 769 763 q 726 561 769 617 q 597 478 683 506 q 738 391 693 451 q 783 253 783 331 q 741 115 783 175 q 619 21 699 56 q 425 -14 540 -14 m 425 99 q 585 144 529 99 q 640 261 640 190 q 585 379 640 335 q 425 424 529 424 q 265 379 321 424 q 210 261 210 335 q 265 144 210 190 q 425 99 321 99 m 425 532 q 574 571 521 532 q 626 681 626 610 q 574 790 626 751 q 425 829 521 829 q 277 790 331 829 q 224 681 224 751 q 277 572 224 611 q 425 532 331 532 z "},"9":{"ha":850,"x_min":68,"x_max":783,"o":"m 381 -14 q 219 19 292 -14 q 93 111 146 51 l 146 203 q 256 126 200 151 q 368 101 311 101 q 502 135 442 101 q 599 243 563 169 q 640 435 636 317 q 544 356 606 385 q 399 326 482 326 q 220 365 294 326 q 107 472 146 404 q 68 629 68 540 q 110 789 68 718 q 228 901 151 860 q 411 942 306 942 q 609 896 526 942 q 738 757 692 850 q 783 519 783 664 q 739 240 783 360 q 606 53 694 119 q 381 -14 517 -14 m 425 435 q 583 487 526 435 q 640 631 640 539 q 575 773 626 718 q 425 828 524 828 q 267 775 325 828 q 210 632 210 722 q 267 487 210 539 q 425 435 325 435 z "},"A":{"ha":974,"x_min":35,"x_max":939,"o":"m 35 0 l 410 928 l 563 928 l 939 0 l 788 0 l 713 193 l 260 193 l 185 0 l 35 0 m 303 310 l 669 310 l 486 781 l 303 310 z "},"Á":{"ha":974,"x_min":35,"x_max":939,"o":"m 35 0 l 410 928 l 563 928 l 939 0 l 788 0 l 713 193 l 260 193 l 185 0 l 35 0 m 303 310 l 669 310 l 486 781 l 303 310 m 450 1032 l 550 1242 l 682 1242 l 540 1032 l 450 1032 z "},"Ă":{"ha":974,"x_min":35,"x_max":939,"o":"m 35 0 l 410 928 l 563 928 l 939 0 l 788 0 l 713 193 l 260 193 l 185 0 l 35 0 m 303 310 l 669 310 l 486 781 l 303 310 m 488 1018 q 346 1069 392 1018 q 300 1200 300 1119 l 300 1242 l 386 1242 l 386 1200 q 412 1131 386 1157 q 488 1106 438 1106 q 563 1131 538 1106 q 589 1200 589 1157 l 589 1242 l 676 1242 l 676 1200 q 630 1069 676 1119 q 488 1018 583 1018 z "},"Ǎ":{"ha":974,"x_min":35,"x_max":939,"o":"m 35 0 l 410 928 l 563 928 l 939 0 l 788 0 l 713 193 l 260 193 l 185 0 l 35 0 m 303 310 l 669 310 l 486 781 l 303 310 m 426 1032 l 286 1242 l 389 1242 l 488 1104 l 588 1242 l 690 1242 l 550 1032 l 426 1032 z "},"Â":{"ha":974,"x_min":35,"x_max":939,"o":"m 35 0 l 410 928 l 563 928 l 939 0 l 788 0 l 713 193 l 260 193 l 185 0 l 35 0 m 303 310 l 669 310 l 486 781 l 303 310 m 286 1032 l 426 1242 l 550 1242 l 690 1032 l 588 1032 l 488 1171 l 389 1032 l 286 1032 z "},"Ä":{"ha":974,"x_min":35,"x_max":939,"o":"m 35 0 l 410 928 l 563 928 l 939 0 l 788 0 l 713 193 l 260 193 l 185 0 l 35 0 m 303 310 l 669 310 l 486 781 l 303 310 m 621 1069 q 569 1089 588 1069 q 550 1138 550 1108 q 569 1185 550 1167 q 621 1204 588 1204 q 672 1185 653 1204 q 692 1138 692 1167 q 672 1089 692 1108 q 621 1069 653 1069 m 356 1069 q 303 1089 322 1069 q 285 1138 285 1108 q 303 1185 285 1167 q 356 1204 322 1204 q 407 1185 388 1204 q 426 1138 426 1167 q 407 1089 426 1108 q 356 1069 388 1069 z "},"À":{"ha":974,"x_min":35,"x_max":939,"o":"m 35 0 l 410 928 l 563 928 l 939 0 l 788 0 l 713 193 l 260 193 l 185 0 l 35 0 m 303 310 l 669 310 l 486 781 l 303 310 m 450 1032 l 308 1242 l 440 1242 l 540 1032 l 450 1032 z "},"Ā":{"ha":974,"x_min":35,"x_max":939,"o":"m 35 0 l 410 928 l 563 928 l 939 0 l 788 0 l 713 193 l 260 193 l 185 0 l 35 0 m 303 310 l 669 310 l 486 781 l 303 310 m 300 1093 l 300 1182 l 676 1182 l 676 1093 l 300 1093 z "},"Ą":{"ha":974,"x_min":35,"x_max":939,"o":"m 35 0 l 410 928 l 563 928 l 939 0 l 788 0 l 713 193 l 260 193 l 185 0 l 35 0 m 303 310 l 669 310 l 486 781 l 303 310 m 843 -265 q 743 -240 776 -265 q 710 -161 710 -214 q 750 -69 710 -111 q 853 0 790 -28 l 939 0 q 837 -71 876 -29 q 797 -146 797 -112 q 851 -187 797 -187 q 893 -185 869 -187 q 939 -179 917 -183 l 939 -253 q 888 -262 914 -260 q 843 -265 863 -265 z "},"Å":{"ha":974,"x_min":35,"x_max":939,"o":"m 35 0 l 410 928 l 563 928 l 939 0 l 788 0 l 713 193 l 260 193 l 185 0 l 35 0 m 303 310 l 669 310 l 486 781 l 303 310 m 488 990 q 372 1032 415 990 q 329 1138 329 1074 q 372 1242 329 1201 q 488 1283 415 1283 q 603 1242 560 1283 q 647 1138 647 1201 q 603 1032 647 1074 q 488 990 560 990 m 488 1051 q 551 1075 528 1051 q 575 1138 575 1099 q 551 1199 575 1175 q 488 1222 528 1222 q 424 1199 449 1222 q 400 1138 400 1175 q 424 1075 400 1099 q 488 1051 447 1051 z "},"Ã":{"ha":974,"x_min":35,"x_max":939,"o":"m 35 0 l 410 928 l 563 928 l 939 0 l 788 0 l 713 193 l 260 193 l 185 0 l 35 0 m 303 310 l 669 310 l 486 781 l 303 310 m 272 1049 q 285 1147 272 1108 q 326 1206 299 1186 q 396 1226 354 1226 q 452 1213 426 1226 q 499 1181 478 1199 q 541 1149 521 1163 q 578 1135 561 1135 q 610 1155 599 1135 q 625 1226 622 1175 l 704 1226 q 690 1128 704 1168 q 649 1069 676 1089 q 579 1049 622 1049 q 524 1063 550 1049 q 476 1094 499 1076 q 435 1125 454 1111 q 397 1139 415 1139 q 366 1119 378 1139 q 351 1049 354 1100 l 272 1049 z "},"Æ":{"ha":1383,"x_min":35,"x_max":1310,"o":"m 35 0 l 622 928 l 1310 928 l 1310 808 l 806 808 l 806 535 l 1268 535 l 1268 421 l 806 421 l 806 119 l 1310 119 l 1310 0 l 665 0 l 665 193 l 311 193 l 193 0 l 35 0 m 382 310 l 665 310 l 665 769 l 382 310 z "},"B":{"ha":964,"x_min":110,"x_max":897,"o":"m 110 0 l 110 928 l 539 928 q 722 903 649 928 q 832 826 794 879 q 869 688 869 774 q 835 554 869 606 q 722 479 801 503 q 856 401 815 457 q 897 256 897 346 q 809 59 897 118 q 539 0 721 0 l 110 0 m 249 118 l 519 118 q 658 133 607 118 q 732 182 710 149 q 754 269 754 215 q 732 358 754 325 q 658 407 710 392 q 519 422 607 422 l 249 422 l 249 118 m 249 535 l 519 535 q 681 565 635 535 q 726 672 726 596 q 681 781 726 750 q 519 811 635 811 l 249 811 l 249 535 z "},"C":{"ha":921,"x_min":68,"x_max":863,"o":"m 542 -14 q 290 48 396 -14 q 126 217 183 110 q 68 464 68 325 q 126 710 68 603 q 290 880 183 818 q 542 942 396 942 q 715 915 638 942 q 863 836 793 889 l 807 729 q 682 797 747 774 q 542 819 617 819 q 366 775 440 819 q 251 651 292 731 q 210 464 210 571 q 251 278 210 358 q 366 154 292 199 q 542 110 440 110 q 682 133 617 110 q 807 200 747 156 l 863 92 q 715 13 793 39 q 542 -14 638 -14 z "},"Ć":{"ha":921,"x_min":68,"x_max":863,"o":"m 542 -14 q 290 48 396 -14 q 126 217 183 110 q 68 464 68 325 q 126 710 68 603 q 290 880 183 818 q 542 942 396 942 q 715 915 638 942 q 863 836 793 889 l 807 729 q 682 797 747 774 q 542 819 617 819 q 366 775 440 819 q 251 651 292 731 q 210 464 210 571 q 251 278 210 358 q 366 154 292 199 q 542 110 440 110 q 682 133 617 110 q 807 200 747 156 l 863 92 q 715 13 793 39 q 542 -14 638 -14 m 486 1032 l 586 1242 l 718 1242 l 576 1032 l 486 1032 z "},"Č":{"ha":921,"x_min":68,"x_max":863,"o":"m 542 -14 q 290 48 396 -14 q 126 217 183 110 q 68 464 68 325 q 126 710 68 603 q 290 880 183 818 q 542 942 396 942 q 715 915 638 942 q 863 836 793 889 l 807 729 q 682 797 747 774 q 542 819 617 819 q 366 775 440 819 q 251 651 292 731 q 210 464 210 571 q 251 278 210 358 q 366 154 292 199 q 542 110 440 110 q 682 133 617 110 q 807 200 747 156 l 863 92 q 715 13 793 39 q 542 -14 638 -14 m 463 1032 l 322 1242 l 425 1242 l 524 1104 l 624 1242 l 726 1242 l 586 1032 l 463 1032 z "},"Ç":{"ha":921,"x_min":68,"x_max":863,"o":"m 542 -14 q 290 48 396 -14 q 126 217 183 110 q 68 464 68 325 q 126 710 68 603 q 290 880 183 818 q 542 942 396 942 q 715 915 638 942 q 863 836 793 889 l 807 729 q 682 797 747 774 q 542 819 617 819 q 366 775 440 819 q 251 651 292 731 q 210 464 210 571 q 251 278 210 358 q 366 154 292 199 q 542 110 440 110 q 682 133 617 110 q 807 200 747 156 l 863 92 q 715 13 793 39 q 542 -14 638 -14 m 485 -265 q 438 -262 465 -265 q 388 -253 411 -260 l 388 -185 q 433 -192 407 -190 q 478 -194 460 -194 q 529 -183 513 -194 q 546 -146 546 -171 q 529 -112 546 -124 q 478 -100 513 -100 l 446 -100 l 446 -64 l 482 15 l 551 15 l 515 -64 q 602 -88 571 -64 q 633 -156 633 -112 q 595 -235 633 -206 q 485 -265 557 -265 z "},"Ċ":{"ha":921,"x_min":68,"x_max":863,"o":"m 542 -14 q 290 48 396 -14 q 126 217 183 110 q 68 464 68 325 q 126 710 68 603 q 290 880 183 818 q 542 942 396 942 q 715 915 638 942 q 863 836 793 889 l 807 729 q 682 797 747 774 q 542 819 617 819 q 366 775 440 819 q 251 651 292 731 q 210 464 210 571 q 251 278 210 358 q 366 154 292 199 q 542 110 440 110 q 682 133 617 110 q 807 200 747 156 l 863 92 q 715 13 793 39 q 542 -14 638 -14 m 524 1069 q 472 1089 492 1069 q 453 1138 453 1108 q 472 1185 453 1167 q 524 1204 492 1204 q 575 1185 556 1204 q 594 1138 594 1167 q 575 1089 594 1108 q 524 1069 556 1069 z "},"D":{"ha":986,"x_min":110,"x_max":919,"o":"m 110 0 l 110 928 l 431 928 q 794 811 669 928 q 919 464 919 694 q 794 117 919 233 q 431 0 669 0 l 110 0 m 249 119 l 422 119 q 693 205 610 119 q 776 464 776 290 q 693 723 776 638 q 422 808 610 808 l 249 808 l 249 119 z "},"Ð":{"ha":986,"x_min":13,"x_max":919,"o":"m 110 0 l 110 433 l 13 433 l 13 524 l 110 524 l 110 928 l 431 928 q 794 811 669 928 q 919 464 919 694 q 794 117 919 233 q 431 0 669 0 l 110 0 m 249 119 l 422 119 q 693 205 610 119 q 776 464 776 290 q 693 723 776 638 q 422 808 610 808 l 249 808 l 249 524 l 489 524 l 489 433 l 249 433 l 249 119 z "},"Ď":{"ha":986,"x_min":110,"x_max":919,"o":"m 110 0 l 110 928 l 431 928 q 794 811 669 928 q 919 464 919 694 q 794 117 919 233 q 431 0 669 0 l 110 0 m 249 119 l 422 119 q 693 205 610 119 q 776 464 776 290 q 693 723 776 638 q 422 808 610 808 l 249 808 l 249 119 m 432 1032 l 292 1242 l 394 1242 l 493 1104 l 593 1242 l 696 1242 l 556 1032 l 432 1032 z "},"Đ":{"ha":986,"x_min":13,"x_max":919,"o":"m 110 0 l 110 433 l 13 433 l 13 524 l 110 524 l 110 928 l 431 928 q 794 811 669 928 q 919 464 919 694 q 794 117 919 233 q 431 0 669 0 l 110 0 m 249 119 l 422 119 q 693 205 610 119 q 776 464 776 290 q 693 723 776 638 q 422 808 610 808 l 249 808 l 249 524 l 489 524 l 489 433 l 249 433 l 249 119 z "},"E":{"ha":826,"x_min":110,"x_max":753,"o":"m 110 0 l 110 928 l 753 928 l 753 808 l 249 808 l 249 535 l 711 535 l 711 421 l 249 421 l 249 119 l 753 119 l 753 0 l 110 0 z "},"É":{"ha":826,"x_min":110,"x_max":753,"o":"m 110 0 l 110 928 l 753 928 l 753 808 l 249 808 l 249 535 l 711 535 l 711 421 l 249 421 l 249 119 l 753 119 l 753 0 l 110 0 m 376 1032 l 476 1242 l 608 1242 l 467 1032 l 376 1032 z "},"Ě":{"ha":826,"x_min":110,"x_max":753,"o":"m 110 0 l 110 928 l 753 928 l 753 808 l 249 808 l 249 535 l 711 535 l 711 421 l 249 421 l 249 119 l 753 119 l 753 0 l 110 0 m 353 1032 l 213 1242 l 315 1242 l 414 1104 l 514 1242 l 617 1242 l 476 1032 l 353 1032 z "},"Ê":{"ha":826,"x_min":110,"x_max":753,"o":"m 110 0 l 110 928 l 753 928 l 753 808 l 249 808 l 249 535 l 711 535 l 711 421 l 249 421 l 249 119 l 753 119 l 753 0 l 110 0 m 213 1032 l 353 1242 l 476 1242 l 617 1032 l 514 1032 l 414 1171 l 315 1032 l 213 1032 z "},"Ë":{"ha":826,"x_min":110,"x_max":753,"o":"m 110 0 l 110 928 l 753 928 l 753 808 l 249 808 l 249 535 l 711 535 l 711 421 l 249 421 l 249 119 l 753 119 l 753 0 l 110 0 m 547 1069 q 495 1089 514 1069 q 476 1138 476 1108 q 495 1185 476 1167 q 547 1204 514 1204 q 599 1185 579 1204 q 618 1138 618 1167 q 599 1089 618 1108 q 547 1069 579 1069 m 282 1069 q 230 1089 249 1069 q 211 1138 211 1108 q 230 1185 211 1167 q 282 1204 249 1204 q 333 1185 314 1204 q 353 1138 353 1167 q 333 1089 353 1108 q 282 1069 314 1069 z "},"Ė":{"ha":826,"x_min":110,"x_max":753,"o":"m 110 0 l 110 928 l 753 928 l 753 808 l 249 808 l 249 535 l 711 535 l 711 421 l 249 421 l 249 119 l 753 119 l 753 0 l 110 0 m 414 1069 q 363 1089 382 1069 q 343 1138 343 1108 q 363 1185 343 1167 q 414 1204 382 1204 q 465 1185 446 1204 q 485 1138 485 1167 q 465 1089 485 1108 q 414 1069 446 1069 z "},"È":{"ha":826,"x_min":110,"x_max":753,"o":"m 110 0 l 110 928 l 753 928 l 753 808 l 249 808 l 249 535 l 711 535 l 711 421 l 249 421 l 249 119 l 753 119 l 753 0 l 110 0 m 376 1032 l 235 1242 l 367 1242 l 467 1032 l 376 1032 z "},"Ē":{"ha":826,"x_min":110,"x_max":753,"o":"m 110 0 l 110 928 l 753 928 l 753 808 l 249 808 l 249 535 l 711 535 l 711 421 l 249 421 l 249 119 l 753 119 l 753 0 l 110 0 m 226 1093 l 226 1182 l 603 1182 l 603 1093 l 226 1093 z "},"Ę":{"ha":826,"x_min":110,"x_max":753,"o":"m 110 0 l 110 928 l 753 928 l 753 808 l 249 808 l 249 535 l 711 535 l 711 421 l 249 421 l 249 119 l 753 119 l 753 0 l 110 0 m 657 -265 q 557 -240 590 -265 q 524 -161 524 -214 q 564 -69 524 -111 q 667 0 604 -28 l 753 0 q 651 -71 690 -29 q 611 -146 611 -112 q 665 -187 611 -187 q 707 -185 683 -187 q 753 -179 731 -183 l 753 -253 q 702 -262 728 -260 q 657 -265 676 -265 z "},"F":{"ha":813,"x_min":110,"x_max":753,"o":"m 110 0 l 110 928 l 753 928 l 753 808 l 249 808 l 249 535 l 711 535 l 711 421 l 249 421 l 249 0 l 110 0 z "},"G":{"ha":1014,"x_min":68,"x_max":933,"o":"m 542 -14 q 289 48 396 -14 q 125 217 182 110 q 68 464 68 325 q 125 710 68 603 q 289 880 182 818 q 542 942 396 942 q 726 915 639 942 q 883 835 814 888 l 829 729 q 693 796 765 772 q 542 819 621 819 q 366 775 440 819 q 251 650 292 731 q 210 464 210 569 q 251 278 210 358 q 366 153 292 197 q 542 110 440 110 q 688 138 624 110 q 793 219 751 167 l 793 393 l 528 393 l 528 511 l 933 511 l 933 175 q 772 36 871 86 q 542 -14 674 -14 z "},"Ğ":{"ha":1014,"x_min":68,"x_max":933,"o":"m 542 -14 q 289 48 396 -14 q 125 217 182 110 q 68 464 68 325 q 125 710 68 603 q 289 880 182 818 q 542 942 396 942 q 726 915 639 942 q 883 835 814 888 l 829 729 q 693 796 765 772 q 542 819 621 819 q 366 775 440 819 q 251 650 292 731 q 210 464 210 569 q 251 278 210 358 q 366 153 292 197 q 542 110 440 110 q 688 138 624 110 q 793 219 751 167 l 793 393 l 528 393 l 528 511 l 933 511 l 933 175 q 772 36 871 86 q 542 -14 674 -14 m 507 1018 q 365 1069 411 1018 q 319 1200 319 1119 l 319 1242 l 406 1242 l 406 1200 q 431 1131 406 1157 q 507 1106 457 1106 q 583 1131 557 1106 q 608 1200 608 1157 l 608 1242 l 696 1242 l 696 1200 q 649 1069 696 1119 q 507 1018 603 1018 z "},"Ģ":{"ha":1014,"x_min":68,"x_max":933,"o":"m 542 -14 q 289 48 396 -14 q 125 217 182 110 q 68 464 68 325 q 125 710 68 603 q 289 880 182 818 q 542 942 396 942 q 726 915 639 942 q 883 835 814 888 l 829 729 q 693 796 765 772 q 542 819 621 819 q 366 775 440 819 q 251 650 292 731 q 210 464 210 569 q 251 278 210 358 q 366 153 292 197 q 542 110 440 110 q 688 138 624 110 q 793 219 751 167 l 793 393 l 528 393 l 528 511 l 933 511 l 933 175 q 772 36 871 86 q 542 -14 674 -14 m 463 -361 l 393 -328 q 424 -264 411 -296 q 442 -198 436 -232 q 449 -128 449 -164 l 449 -83 l 569 -83 l 569 -128 q 544 -265 569 -211 q 463 -361 518 -319 z "},"Ġ":{"ha":1014,"x_min":68,"x_max":933,"o":"m 542 -14 q 289 48 396 -14 q 125 217 182 110 q 68 464 68 325 q 125 710 68 603 q 289 880 182 818 q 542 942 396 942 q 726 915 639 942 q 883 835 814 888 l 829 729 q 693 796 765 772 q 542 819 621 819 q 366 775 440 819 q 251 650 292 731 q 210 464 210 569 q 251 278 210 358 q 366 153 292 197 q 542 110 440 110 q 688 138 624 110 q 793 219 751 167 l 793 393 l 528 393 l 528 511 l 933 511 l 933 175 q 772 36 871 86 q 542 -14 674 -14 m 507 1069 q 456 1089 475 1069 q 436 1138 436 1108 q 456 1185 436 1167 q 507 1204 475 1204 q 558 1185 539 1204 q 578 1138 578 1167 q 558 1089 578 1108 q 507 1069 539 1069 z "},"H":{"ha":1000,"x_min":110,"x_max":892,"o":"m 110 0 l 110 928 l 249 928 l 249 539 l 751 539 l 751 928 l 892 928 l 892 0 l 751 0 l 751 417 l 249 417 l 249 0 l 110 0 z "},"Ħ":{"ha":1000,"x_min":33,"x_max":967,"o":"m 110 0 l 110 928 l 249 928 l 249 539 l 751 539 l 751 928 l 892 928 l 892 0 l 751 0 l 751 417 l 249 417 l 249 0 l 110 0 m 33 667 l 33 789 l 967 789 l 967 667 l 33 667 z "},"I":{"ha":358,"x_min":110,"x_max":249,"o":"m 110 0 l 110 928 l 249 928 l 249 0 l 110 0 z "},"Ĳ":{"ha":1089,"x_min":110,"x_max":981,"o":"m 110 0 l 110 928 l 249 928 l 249 0 l 110 0 m 667 -14 q 528 10 588 -14 q 413 88 469 35 l 475 189 q 568 130 521 150 q 663 110 615 110 q 794 165 749 110 q 840 319 840 219 l 840 928 l 981 928 l 981 325 q 899 72 981 158 q 667 -14 817 -14 z "},"Í":{"ha":358,"x_min":110,"x_max":374,"o":"m 110 0 l 110 928 l 249 928 l 249 0 l 110 0 m 143 1032 l 243 1242 l 375 1242 l 233 1032 l 143 1032 z "},"Î":{"ha":358,"x_min":-22,"x_max":382,"o":"m 110 0 l 110 928 l 249 928 l 249 0 l 110 0 m -21 1032 l 119 1242 l 243 1242 l 383 1032 l 281 1032 l 181 1171 l 82 1032 l -21 1032 z "},"Ï":{"ha":358,"x_min":-24,"x_max":383,"o":"m 110 0 l 110 928 l 249 928 l 249 0 l 110 0 m 314 1069 q 262 1089 281 1069 q 243 1138 243 1108 q 262 1185 243 1167 q 314 1204 281 1204 q 365 1185 346 1204 q 385 1138 385 1167 q 365 1089 385 1108 q 314 1069 346 1069 m 49 1069 q -3 1089 15 1069 q -22 1138 -22 1108 q -3 1185 -22 1167 q 49 1204 15 1204 q 100 1185 81 1204 q 119 1138 119 1167 q 100 1089 119 1108 q 49 1069 81 1069 z "},"İ":{"ha":358,"x_min":110,"x_max":251,"o":"m 110 0 l 110 928 l 249 928 l 249 0 l 110 0 m 181 1069 q 129 1089 149 1069 q 110 1138 110 1108 q 129 1185 110 1167 q 181 1204 149 1204 q 232 1185 213 1204 q 251 1138 251 1167 q 232 1089 251 1108 q 181 1069 213 1069 z "},"Ì":{"ha":358,"x_min":0,"x_max":249,"o":"m 110 0 l 110 928 l 249 928 l 249 0 l 110 0 m 143 1032 l 1 1242 l 133 1242 l 233 1032 l 143 1032 z "},"Ī":{"ha":358,"x_min":-8,"x_max":368,"o":"m 110 0 l 110 928 l 249 928 l 249 0 l 110 0 m -7 1093 l -7 1182 l 369 1182 l 369 1093 l -7 1093 z "},"Į":{"ha":358,"x_min":19,"x_max":249,"o":"m 110 0 l 110 928 l 249 928 l 249 0 l 110 0 m 154 -265 q 54 -240 88 -265 q 21 -161 21 -214 q 61 -69 21 -111 q 164 0 101 -28 l 250 0 q 148 -71 188 -29 q 108 -146 108 -112 q 163 -187 108 -187 q 204 -185 181 -187 q 250 -179 228 -183 l 250 -253 q 199 -262 225 -260 q 154 -265 174 -265 z "},"J":{"ha":731,"x_min":54,"x_max":622,"o":"m 308 -14 q 170 10 229 -14 q 54 88 111 35 l 117 189 q 210 130 163 150 q 304 110 257 110 q 436 165 390 110 q 482 319 482 219 l 482 928 l 622 928 l 622 325 q 540 72 622 158 q 308 -14 458 -14 z "},"K":{"ha":888,"x_min":110,"x_max":851,"o":"m 110 0 l 110 928 l 249 928 l 249 458 l 669 928 l 838 928 l 469 522 l 851 0 l 683 0 l 379 422 l 249 278 l 249 0 l 110 0 z "},"Ķ":{"ha":888,"x_min":110,"x_max":851,"o":"m 110 0 l 110 928 l 249 928 l 249 458 l 669 928 l 838 928 l 469 522 l 851 0 l 683 0 l 379 422 l 249 278 l 249 0 l 110 0 m 400 -361 l 331 -328 q 361 -264 349 -296 q 380 -198 374 -232 q 386 -128 386 -164 l 386 -83 l 507 -83 l 507 -128 q 481 -265 507 -211 q 400 -361 456 -319 z "},"L":{"ha":743,"x_min":110,"x_max":683,"o":"m 110 0 l 110 928 l 249 928 l 249 124 l 683 124 l 683 0 l 110 0 z "},"Ĺ":{"ha":743,"x_min":110,"x_max":683,"o":"m 110 0 l 110 928 l 249 928 l 249 124 l 683 124 l 683 0 l 110 0 m 335 1032 l 435 1242 l 567 1242 l 425 1032 l 335 1032 z "},"Ľ":{"ha":743,"x_min":110,"x_max":683,"o":"m 110 0 l 110 928 l 249 928 l 249 124 l 683 124 l 683 0 l 110 0 m 508 540 l 543 929 l 676 929 l 601 540 l 508 540 z "},"Ļ":{"ha":743,"x_min":110,"x_max":683,"o":"m 110 0 l 110 928 l 249 928 l 249 124 l 683 124 l 683 0 l 110 0 m 328 -361 l 258 -328 q 289 -264 276 -296 q 308 -198 301 -232 q 314 -128 314 -164 l 314 -83 l 435 -83 l 435 -128 q 409 -265 435 -211 q 328 -361 383 -319 z "},"Ł":{"ha":743,"x_min":13,"x_max":683,"o":"m 110 0 l 110 397 l 13 360 l 13 442 l 110 479 l 110 928 l 249 928 l 249 535 l 503 632 l 503 550 l 249 453 l 249 124 l 683 124 l 683 0 l 110 0 z "},"M":{"ha":1257,"x_min":110,"x_max":1147,"o":"m 110 0 l 110 928 l 329 928 l 628 172 l 928 928 l 1147 928 l 1147 0 l 1007 0 l 1007 790 l 689 0 l 567 0 l 249 790 l 249 0 l 110 0 z "},"N":{"ha":1000,"x_min":110,"x_max":892,"o":"m 110 0 l 110 928 l 263 928 l 751 203 l 751 928 l 892 928 l 892 0 l 738 0 l 249 726 l 249 0 l 110 0 z "},"Ń":{"ha":1000,"x_min":110,"x_max":892,"o":"m 110 0 l 110 928 l 263 928 l 751 203 l 751 928 l 892 928 l 892 0 l 738 0 l 249 726 l 249 0 l 110 0 m 463 1032 l 563 1242 l 694 1242 l 553 1032 l 463 1032 z "},"Ň":{"ha":1000,"x_min":110,"x_max":892,"o":"m 110 0 l 110 928 l 263 928 l 751 203 l 751 928 l 892 928 l 892 0 l 738 0 l 249 726 l 249 0 l 110 0 m 439 1032 l 299 1242 l 401 1242 l 500 1104 l 600 1242 l 703 1242 l 563 1032 l 439 1032 z "},"Ņ":{"ha":1000,"x_min":110,"x_max":892,"o":"m 110 0 l 110 928 l 263 928 l 751 203 l 751 928 l 892 928 l 892 0 l 738 0 l 249 726 l 249 0 l 110 0 m 456 -361 l 386 -328 q 417 -264 404 -296 q 435 -198 429 -232 q 442 -128 442 -164 l 442 -83 l 563 -83 l 563 -128 q 537 -265 563 -211 q 456 -361 511 -319 z "},"Ñ":{"ha":1000,"x_min":110,"x_max":892,"o":"m 110 0 l 110 928 l 263 928 l 751 203 l 751 928 l 892 928 l 892 0 l 738 0 l 249 726 l 249 0 l 110 0 m 285 1049 q 298 1147 285 1108 q 339 1206 311 1186 q 408 1226 367 1226 q 465 1213 439 1226 q 512 1181 490 1199 q 553 1149 533 1163 q 590 1135 574 1135 q 623 1155 611 1135 q 638 1226 635 1175 l 717 1226 q 703 1128 717 1168 q 662 1069 689 1089 q 592 1049 635 1049 q 537 1063 563 1049 q 489 1094 511 1076 q 447 1125 467 1111 q 410 1139 428 1139 q 378 1119 390 1139 q 364 1049 367 1100 l 285 1049 z "},"Ŋ":{"ha":1000,"x_min":110,"x_max":892,"o":"m 690 -261 q 643 -258 665 -261 q 601 -250 621 -256 l 601 -144 q 633 -147 617 -146 q 664 -149 649 -149 q 736 -125 713 -149 q 760 -53 760 -101 l 760 -31 l 249 726 l 249 0 l 110 0 l 110 928 l 263 928 l 751 203 l 751 928 l 892 928 l 892 -64 q 842 -213 892 -165 q 690 -261 793 -261 z "},"O":{"ha":1083,"x_min":68,"x_max":1017,"o":"m 542 -14 q 289 48 396 -14 q 125 217 182 110 q 68 464 68 325 q 125 710 68 603 q 289 880 182 818 q 542 942 396 942 q 794 880 689 942 q 958 710 900 818 q 1017 464 1017 603 q 958 217 1017 325 q 794 48 900 110 q 542 -14 689 -14 m 542 110 q 719 153 644 110 q 833 278 793 197 q 874 464 874 358 q 833 650 874 569 q 719 775 793 731 q 542 819 644 819 q 366 775 440 819 q 251 650 292 731 q 210 464 210 569 q 251 278 210 358 q 366 153 292 197 q 542 110 440 110 z "},"Ó":{"ha":1083,"x_min":68,"x_max":1017,"o":"m 542 -14 q 289 48 396 -14 q 125 217 182 110 q 68 464 68 325 q 125 710 68 603 q 289 880 182 818 q 542 942 396 942 q 794 880 689 942 q 958 710 900 818 q 1017 464 1017 603 q 958 217 1017 325 q 794 48 900 110 q 542 -14 689 -14 m 542 110 q 719 153 644 110 q 833 278 793 197 q 874 464 874 358 q 833 650 874 569 q 719 775 793 731 q 542 819 644 819 q 366 775 440 819 q 251 650 292 731 q 210 464 210 569 q 251 278 210 358 q 366 153 292 197 q 542 110 440 110 m 504 1032 l 604 1242 l 736 1242 l 594 1032 l 504 1032 z "},"Ô":{"ha":1083,"x_min":68,"x_max":1017,"o":"m 542 -14 q 289 48 396 -14 q 125 217 182 110 q 68 464 68 325 q 125 710 68 603 q 289 880 182 818 q 542 942 396 942 q 794 880 689 942 q 958 710 900 818 q 1017 464 1017 603 q 958 217 1017 325 q 794 48 900 110 q 542 -14 689 -14 m 542 110 q 719 153 644 110 q 833 278 793 197 q 874 464 874 358 q 833 650 874 569 q 719 775 793 731 q 542 819 644 819 q 366 775 440 819 q 251 650 292 731 q 210 464 210 569 q 251 278 210 358 q 366 153 292 197 q 542 110 440 110 m 340 1032 l 481 1242 l 604 1242 l 744 1032 l 642 1032 l 542 1171 l 443 1032 l 340 1032 z "},"Ö":{"ha":1083,"x_min":68,"x_max":1017,"o":"m 542 -14 q 289 48 396 -14 q 125 217 182 110 q 68 464 68 325 q 125 710 68 603 q 289 880 182 818 q 542 942 396 942 q 794 880 689 942 q 958 710 900 818 q 1017 464 1017 603 q 958 217 1017 325 q 794 48 900 110 q 542 -14 689 -14 m 542 110 q 719 153 644 110 q 833 278 793 197 q 874 464 874 358 q 833 650 874 569 q 719 775 793 731 q 542 819 644 819 q 366 775 440 819 q 251 650 292 731 q 210 464 210 569 q 251 278 210 358 q 366 153 292 197 q 542 110 440 110 m 675 1069 q 623 1089 642 1069 q 604 1138 604 1108 q 623 1185 604 1167 q 675 1204 642 1204 q 726 1185 707 1204 q 746 1138 746 1167 q 726 1089 746 1108 q 675 1069 707 1069 m 410 1069 q 358 1089 376 1069 q 339 1138 339 1108 q 358 1185 339 1167 q 410 1204 376 1204 q 461 1185 442 1204 q 481 1138 481 1167 q 461 1089 481 1108 q 410 1069 442 1069 z "},"Ò":{"ha":1083,"x_min":68,"x_max":1017,"o":"m 542 -14 q 289 48 396 -14 q 125 217 182 110 q 68 464 68 325 q 125 710 68 603 q 289 880 182 818 q 542 942 396 942 q 794 880 689 942 q 958 710 900 818 q 1017 464 1017 603 q 958 217 1017 325 q 794 48 900 110 q 542 -14 689 -14 m 542 110 q 719 153 644 110 q 833 278 793 197 q 874 464 874 358 q 833 650 874 569 q 719 775 793 731 q 542 819 644 819 q 366 775 440 819 q 251 650 292 731 q 210 464 210 569 q 251 278 210 358 q 366 153 292 197 q 542 110 440 110 m 504 1032 l 363 1242 l 494 1242 l 594 1032 l 504 1032 z "},"Ő":{"ha":1083,"x_min":68,"x_max":1017,"o":"m 542 -14 q 289 48 396 -14 q 125 217 182 110 q 68 464 68 325 q 125 710 68 603 q 289 880 182 818 q 542 942 396 942 q 794 880 689 942 q 958 710 900 818 q 1017 464 1017 603 q 958 217 1017 325 q 794 48 900 110 q 542 -14 689 -14 m 542 110 q 719 153 644 110 q 833 278 793 197 q 874 464 874 358 q 833 650 874 569 q 719 775 793 731 q 542 819 644 819 q 366 775 440 819 q 251 650 292 731 q 210 464 210 569 q 251 278 210 358 q 366 153 292 197 q 542 110 440 110 m 597 1032 l 697 1242 l 829 1242 l 688 1032 l 597 1032 m 365 1032 l 465 1242 l 599 1242 l 457 1032 l 365 1032 z "},"Ō":{"ha":1083,"x_min":68,"x_max":1017,"o":"m 542 -14 q 289 48 396 -14 q 125 217 182 110 q 68 464 68 325 q 125 710 68 603 q 289 880 182 818 q 542 942 396 942 q 794 880 689 942 q 958 710 900 818 q 1017 464 1017 603 q 958 217 1017 325 q 794 48 900 110 q 542 -14 689 -14 m 542 110 q 719 153 644 110 q 833 278 793 197 q 874 464 874 358 q 833 650 874 569 q 719 775 793 731 q 542 819 644 819 q 366 775 440 819 q 251 650 292 731 q 210 464 210 569 q 251 278 210 358 q 366 153 292 197 q 542 110 440 110 m 354 1093 l 354 1182 l 731 1182 l 731 1093 l 354 1093 z "},"Ø":{"ha":1083,"x_min":68,"x_max":1017,"o":"m 122 -14 l 68 46 l 171 149 q 94 291 121 211 q 68 464 68 371 q 126 710 68 603 q 290 880 183 818 q 542 942 396 942 q 717 914 638 942 q 857 836 796 886 l 961 942 l 1017 882 l 914 779 q 990 637 963 717 q 1017 464 1017 557 q 959 217 1017 325 q 795 48 901 110 q 542 -14 689 -14 q 367 14 446 -14 q 228 92 288 42 l 122 -14 m 542 110 q 719 154 644 110 q 833 278 793 199 q 874 464 874 358 q 858 583 874 528 q 815 681 843 638 l 322 185 q 419 128 364 147 q 542 110 475 110 m 268 247 l 763 742 q 665 800 719 781 q 542 819 610 819 q 366 775 440 819 q 251 651 292 731 q 210 464 210 571 q 268 247 210 335 z "},"Õ":{"ha":1083,"x_min":68,"x_max":1017,"o":"m 542 -14 q 289 48 396 -14 q 125 217 182 110 q 68 464 68 325 q 125 710 68 603 q 289 880 182 818 q 542 942 396 942 q 794 880 689 942 q 958 710 900 818 q 1017 464 1017 603 q 958 217 1017 325 q 794 48 900 110 q 542 -14 689 -14 m 542 110 q 719 153 644 110 q 833 278 793 197 q 874 464 874 358 q 833 650 874 569 q 719 775 793 731 q 542 819 644 819 q 366 775 440 819 q 251 650 292 731 q 210 464 210 569 q 251 278 210 358 q 366 153 292 197 q 542 110 440 110 m 326 1049 q 340 1147 326 1108 q 381 1206 353 1186 q 450 1226 408 1226 q 506 1213 481 1226 q 553 1181 532 1199 q 595 1149 575 1163 q 632 1135 615 1135 q 665 1155 653 1135 q 679 1226 676 1175 l 758 1226 q 744 1128 758 1168 q 703 1069 731 1089 q 633 1049 676 1049 q 578 1063 604 1049 q 531 1094 553 1076 q 489 1125 508 1111 q 451 1139 469 1139 q 420 1119 432 1139 q 406 1049 408 1100 l 326 1049 z "},"Œ":{"ha":1454,"x_min":68,"x_max":1381,"o":"m 556 0 q 192 117 317 0 q 68 464 68 233 q 192 811 68 694 q 556 928 317 928 l 1381 928 l 1381 808 l 878 808 l 878 535 l 1339 535 l 1339 421 l 878 421 l 878 119 l 1381 119 l 1381 0 l 556 0 m 564 119 l 738 119 l 738 808 l 564 808 q 293 724 376 808 q 210 464 210 639 q 293 204 210 289 q 564 119 376 119 z "},"P":{"ha":890,"x_min":110,"x_max":822,"o":"m 110 0 l 110 928 l 479 928 q 736 856 650 928 q 822 636 822 783 q 736 417 822 489 q 479 346 650 346 l 249 346 l 249 0 l 110 0 m 249 463 l 453 463 q 622 501 564 463 q 681 636 681 540 q 624 772 681 733 q 453 811 568 811 l 249 811 l 249 463 z "},"Þ":{"ha":890,"x_min":110,"x_max":822,"o":"m 110 0 l 110 928 l 249 928 l 249 779 l 456 779 q 733 694 643 779 q 822 464 822 610 q 733 233 822 318 q 456 149 643 149 l 249 149 l 249 0 l 110 0 m 249 267 l 431 267 q 616 313 551 267 q 681 464 681 360 q 619 616 681 569 q 431 663 558 663 l 249 663 l 249 267 z "},"Q":{"ha":1083,"x_min":68,"x_max":1072,"o":"m 828 -267 q 669 -233 733 -267 q 574 -141 606 -199 q 542 -14 542 -83 q 289 48 396 -14 q 125 217 182 110 q 68 464 68 325 q 125 710 68 603 q 289 880 182 818 q 542 942 396 942 q 794 880 689 942 q 958 710 900 818 q 1017 464 1017 603 q 974 249 1017 346 q 851 87 931 151 q 660 0 771 22 q 710 -115 664 -76 q 839 -154 757 -154 q 928 -139 883 -154 q 1025 -92 972 -124 l 1072 -186 q 950 -248 1008 -229 q 828 -267 892 -267 m 542 110 q 719 153 644 110 q 833 278 793 197 q 874 464 874 358 q 833 650 874 569 q 719 775 793 731 q 542 819 644 819 q 366 775 440 819 q 251 650 292 731 q 210 464 210 569 q 251 278 210 358 q 366 153 292 197 q 542 110 440 110 z "},"R":{"ha":890,"x_min":110,"x_max":869,"o":"m 110 0 l 110 928 l 479 928 q 734 860 646 928 q 822 651 822 792 q 760 469 822 533 q 583 386 699 406 l 869 0 l 706 0 l 436 376 l 249 376 l 249 0 l 110 0 m 249 492 l 453 492 q 624 528 568 492 q 681 650 681 564 q 627 775 681 739 q 453 811 574 811 l 249 811 l 249 492 z "},"Ŕ":{"ha":890,"x_min":110,"x_max":869,"o":"m 110 0 l 110 928 l 479 928 q 734 860 646 928 q 822 651 822 792 q 760 469 822 533 q 583 386 699 406 l 869 0 l 706 0 l 436 376 l 249 376 l 249 0 l 110 0 m 249 492 l 453 492 q 624 528 568 492 q 681 650 681 564 q 627 775 681 739 q 453 811 574 811 l 249 811 l 249 492 m 408 1032 l 508 1242 l 640 1242 l 499 1032 l 408 1032 z "},"Ř":{"ha":890,"x_min":110,"x_max":869,"o":"m 110 0 l 110 928 l 479 928 q 734 860 646 928 q 822 651 822 792 q 760 469 822 533 q 583 386 699 406 l 869 0 l 706 0 l 436 376 l 249 376 l 249 0 l 110 0 m 249 492 l 453 492 q 624 528 568 492 q 681 650 681 564 q 627 775 681 739 q 453 811 574 811 l 249 811 l 249 492 m 385 1032 l 244 1242 l 347 1242 l 446 1104 l 546 1242 l 649 1242 l 508 1032 l 385 1032 z "},"Ŗ":{"ha":890,"x_min":110,"x_max":869,"o":"m 110 0 l 110 928 l 479 928 q 734 860 646 928 q 822 651 822 792 q 760 469 822 533 q 583 386 699 406 l 869 0 l 706 0 l 436 376 l 249 376 l 249 0 l 110 0 m 249 492 l 453 492 q 624 528 568 492 q 681 650 681 564 q 627 775 681 739 q 453 811 574 811 l 249 811 l 249 492 m 401 -361 l 332 -328 q 363 -264 350 -296 q 381 -198 375 -232 q 388 -128 388 -164 l 388 -83 l 508 -83 l 508 -128 q 483 -265 508 -211 q 401 -361 457 -319 z "},"S":{"ha":822,"x_min":68,"x_max":756,"o":"m 403 -14 q 226 15 306 -14 q 68 111 146 44 l 124 221 q 266 134 199 161 q 403 107 333 107 q 558 148 504 107 q 613 263 613 189 q 579 349 613 314 q 482 396 546 383 l 329 425 q 151 510 206 449 q 96 658 96 571 q 131 800 96 736 q 238 903 165 864 q 419 942 310 942 q 578 918 501 942 q 728 836 656 894 l 671 728 q 550 796 610 771 q 422 821 490 821 q 284 782 331 821 q 238 676 238 743 q 271 596 238 625 q 369 554 304 567 l 521 525 q 699 433 643 503 q 756 276 756 363 q 665 66 756 146 q 403 -14 574 -14 z "},"Ś":{"ha":822,"x_min":68,"x_max":756,"o":"m 403 -14 q 226 15 306 -14 q 68 111 146 44 l 124 221 q 266 134 199 161 q 403 107 333 107 q 558 148 504 107 q 613 263 613 189 q 579 349 613 314 q 482 396 546 383 l 329 425 q 151 510 206 449 q 96 658 96 571 q 131 800 96 736 q 238 903 165 864 q 419 942 310 942 q 578 918 501 942 q 728 836 656 894 l 671 728 q 550 796 610 771 q 422 821 490 821 q 284 782 331 821 q 238 676 238 743 q 271 596 238 625 q 369 554 304 567 l 521 525 q 699 433 643 503 q 756 276 756 363 q 665 66 756 146 q 403 -14 574 -14 m 374 1032 l 474 1242 l 606 1242 l 464 1032 l 374 1032 z "},"Š":{"ha":822,"x_min":68,"x_max":756,"o":"m 403 -14 q 226 15 306 -14 q 68 111 146 44 l 124 221 q 266 134 199 161 q 403 107 333 107 q 558 148 504 107 q 613 263 613 189 q 579 349 613 314 q 482 396 546 383 l 329 425 q 151 510 206 449 q 96 658 96 571 q 131 800 96 736 q 238 903 165 864 q 419 942 310 942 q 578 918 501 942 q 728 836 656 894 l 671 728 q 550 796 610 771 q 422 821 490 821 q 284 782 331 821 q 238 676 238 743 q 271 596 238 625 q 369 554 304 567 l 521 525 q 699 433 643 503 q 756 276 756 363 q 665 66 756 146 q 403 -14 574 -14 m 350 1032 l 210 1242 l 313 1242 l 411 1104 l 511 1242 l 614 1242 l 474 1032 l 350 1032 z "},"Ş":{"ha":822,"x_min":68,"x_max":756,"o":"m 403 -14 q 226 15 306 -14 q 68 111 146 44 l 124 221 q 266 134 199 161 q 403 107 333 107 q 558 148 504 107 q 613 263 613 189 q 579 349 613 314 q 482 396 546 383 l 329 425 q 151 510 206 449 q 96 658 96 571 q 131 800 96 736 q 238 903 165 864 q 419 942 310 942 q 578 918 501 942 q 728 836 656 894 l 671 728 q 550 796 610 771 q 422 821 490 821 q 284 782 331 821 q 238 676 238 743 q 271 596 238 625 q 369 554 304 567 l 521 525 q 699 433 643 503 q 756 276 756 363 q 665 66 756 146 q 403 -14 574 -14 m 386 -265 q 340 -262 367 -265 q 289 -253 313 -260 l 289 -185 q 335 -192 308 -190 q 379 -194 361 -194 q 431 -183 414 -194 q 447 -146 447 -171 q 431 -112 447 -124 q 379 -100 414 -100 l 347 -100 l 347 -64 l 383 15 l 453 15 l 417 -64 q 503 -88 472 -64 q 535 -156 535 -112 q 497 -235 535 -206 q 386 -265 458 -265 z "},"Ș":{"ha":822,"x_min":68,"x_max":756,"o":"m 403 -14 q 226 15 306 -14 q 68 111 146 44 l 124 221 q 266 134 199 161 q 403 107 333 107 q 558 148 504 107 q 613 263 613 189 q 579 349 613 314 q 482 396 546 383 l 329 425 q 151 510 206 449 q 96 658 96 571 q 131 800 96 736 q 238 903 165 864 q 419 942 310 942 q 578 918 501 942 q 728 836 656 894 l 671 728 q 550 796 610 771 q 422 821 490 821 q 284 782 331 821 q 238 676 238 743 q 271 596 238 625 q 369 554 304 567 l 521 525 q 699 433 643 503 q 756 276 756 363 q 665 66 756 146 q 403 -14 574 -14 m 367 -361 l 297 -328 q 328 -264 315 -296 q 347 -198 340 -232 q 353 -128 353 -164 l 353 -83 l 474 -83 l 474 -128 q 448 -265 474 -211 q 367 -361 422 -319 z "},"T":{"ha":833,"x_min":60,"x_max":772,"o":"m 347 0 l 347 806 l 60 806 l 60 928 l 772 928 l 772 806 l 486 806 l 486 0 l 347 0 z "},"Ť":{"ha":833,"x_min":60,"x_max":772,"o":"m 347 0 l 347 806 l 60 806 l 60 928 l 772 928 l 772 806 l 486 806 l 486 0 l 347 0 m 356 1032 l 215 1242 l 318 1242 l 417 1104 l 517 1242 l 619 1242 l 479 1032 l 356 1032 z "},"Ț":{"ha":833,"x_min":60,"x_max":772,"o":"m 347 0 l 347 806 l 60 806 l 60 928 l 772 928 l 772 806 l 486 806 l 486 0 l 347 0 m 372 -361 l 303 -328 q 333 -264 321 -296 q 352 -198 346 -232 q 358 -128 358 -164 l 358 -83 l 479 -83 l 479 -128 q 453 -265 479 -211 q 372 -361 428 -319 z "},"U":{"ha":1000,"x_min":110,"x_max":892,"o":"m 500 -14 q 215 82 319 -14 q 110 378 110 178 l 110 928 l 249 928 l 249 378 q 278 225 249 285 q 365 138 308 165 q 500 110 421 110 q 635 138 579 110 q 722 225 692 165 q 751 378 751 285 l 751 928 l 892 928 l 892 378 q 787 82 892 178 q 500 -14 682 -14 z "},"Ú":{"ha":1000,"x_min":110,"x_max":892,"o":"m 500 -14 q 215 82 319 -14 q 110 378 110 178 l 110 928 l 249 928 l 249 378 q 278 225 249 285 q 365 138 308 165 q 500 110 421 110 q 635 138 579 110 q 722 225 692 165 q 751 378 751 285 l 751 928 l 892 928 l 892 378 q 787 82 892 178 q 500 -14 682 -14 m 463 1032 l 563 1242 l 694 1242 l 553 1032 l 463 1032 z "},"Ŭ":{"ha":1000,"x_min":110,"x_max":892,"o":"m 500 -14 q 215 82 319 -14 q 110 378 110 178 l 110 928 l 249 928 l 249 378 q 278 225 249 285 q 365 138 308 165 q 500 110 421 110 q 635 138 579 110 q 722 225 692 165 q 751 378 751 285 l 751 928 l 892 928 l 892 378 q 787 82 892 178 q 500 -14 682 -14 m 500 1018 q 358 1069 404 1018 q 313 1200 313 1119 l 313 1242 l 399 1242 l 399 1200 q 424 1131 399 1157 q 500 1106 450 1106 q 576 1131 550 1106 q 601 1200 601 1157 l 601 1242 l 689 1242 l 689 1200 q 642 1069 689 1119 q 500 1018 596 1018 z "},"Û":{"ha":1000,"x_min":110,"x_max":892,"o":"m 500 -14 q 215 82 319 -14 q 110 378 110 178 l 110 928 l 249 928 l 249 378 q 278 225 249 285 q 365 138 308 165 q 500 110 421 110 q 635 138 579 110 q 722 225 692 165 q 751 378 751 285 l 751 928 l 892 928 l 892 378 q 787 82 892 178 q 500 -14 682 -14 m 299 1032 l 439 1242 l 563 1242 l 703 1032 l 600 1032 l 500 1171 l 401 1032 l 299 1032 z "},"Ü":{"ha":1000,"x_min":110,"x_max":892,"o":"m 500 -14 q 215 82 319 -14 q 110 378 110 178 l 110 928 l 249 928 l 249 378 q 278 225 249 285 q 365 138 308 165 q 500 110 421 110 q 635 138 579 110 q 722 225 692 165 q 751 378 751 285 l 751 928 l 892 928 l 892 378 q 787 82 892 178 q 500 -14 682 -14 m 633 1069 q 581 1089 600 1069 q 563 1138 563 1108 q 581 1185 563 1167 q 633 1204 600 1204 q 685 1185 665 1204 q 704 1138 704 1167 q 685 1089 704 1108 q 633 1069 665 1069 m 368 1069 q 316 1089 335 1069 q 297 1138 297 1108 q 316 1185 297 1167 q 368 1204 335 1204 q 419 1185 400 1204 q 439 1138 439 1167 q 419 1089 439 1108 q 368 1069 400 1069 z "},"Ù":{"ha":1000,"x_min":110,"x_max":892,"o":"m 500 -14 q 215 82 319 -14 q 110 378 110 178 l 110 928 l 249 928 l 249 378 q 278 225 249 285 q 365 138 308 165 q 500 110 421 110 q 635 138 579 110 q 722 225 692 165 q 751 378 751 285 l 751 928 l 892 928 l 892 378 q 787 82 892 178 q 500 -14 682 -14 m 463 1032 l 321 1242 l 453 1242 l 553 1032 l 463 1032 z "},"Ű":{"ha":1000,"x_min":110,"x_max":892,"o":"m 500 -14 q 215 82 319 -14 q 110 378 110 178 l 110 928 l 249 928 l 249 378 q 278 225 249 285 q 365 138 308 165 q 500 110 421 110 q 635 138 579 110 q 722 225 692 165 q 751 378 751 285 l 751 928 l 892 928 l 892 378 q 787 82 892 178 q 500 -14 682 -14 m 556 1032 l 656 1242 l 788 1242 l 646 1032 l 556 1032 m 324 1032 l 424 1242 l 557 1242 l 415 1032 l 324 1032 z "},"Ū":{"ha":1000,"x_min":110,"x_max":892,"o":"m 500 -14 q 215 82 319 -14 q 110 378 110 178 l 110 928 l 249 928 l 249 378 q 278 225 249 285 q 365 138 308 165 q 500 110 421 110 q 635 138 579 110 q 722 225 692 165 q 751 378 751 285 l 751 928 l 892 928 l 892 378 q 787 82 892 178 q 500 -14 682 -14 m 313 1093 l 313 1182 l 689 1182 l 689 1093 l 313 1093 z "},"Ų":{"ha":1000,"x_min":110,"x_max":892,"o":"m 500 -14 q 215 82 319 -14 q 110 378 110 178 l 110 928 l 249 928 l 249 378 q 278 225 249 285 q 365 138 308 165 q 500 110 421 110 q 635 138 579 110 q 722 225 692 165 q 751 378 751 285 l 751 928 l 892 928 l 892 378 q 787 82 892 178 q 500 -14 682 -14 m 531 -265 q 431 -240 464 -265 q 397 -161 397 -214 q 438 -69 397 -111 q 540 0 478 -28 l 626 0 q 524 -71 564 -29 q 485 -146 485 -112 q 539 -187 485 -187 q 581 -185 557 -187 q 626 -179 604 -183 l 626 -253 q 576 -262 601 -260 q 531 -265 550 -265 z "},"Ů":{"ha":1000,"x_min":110,"x_max":892,"o":"m 500 -14 q 215 82 319 -14 q 110 378 110 178 l 110 928 l 249 928 l 249 378 q 278 225 249 285 q 365 138 308 165 q 500 110 421 110 q 635 138 579 110 q 722 225 692 165 q 751 378 751 285 l 751 928 l 892 928 l 892 378 q 787 82 892 178 q 500 -14 682 -14 m 500 990 q 385 1032 428 990 q 342 1138 342 1074 q 385 1242 342 1201 q 500 1283 428 1283 q 616 1242 572 1283 q 660 1138 660 1201 q 616 1032 660 1074 q 500 990 572 990 m 500 1051 q 564 1075 540 1051 q 588 1138 588 1099 q 564 1199 588 1175 q 500 1222 540 1222 q 437 1199 461 1222 q 413 1138 413 1175 q 436 1075 413 1099 q 500 1051 460 1051 z "},"V":{"ha":974,"x_min":35,"x_max":939,"o":"m 410 0 l 35 928 l 189 928 l 486 160 l 783 928 l 939 928 l 563 0 l 410 0 z "},"W":{"ha":1396,"x_min":35,"x_max":1361,"o":"m 328 0 l 35 928 l 189 928 l 407 178 l 624 928 l 772 928 l 988 178 l 1207 928 l 1361 928 l 1068 0 l 915 0 l 697 743 l 479 0 l 328 0 z "},"Ẃ":{"ha":1396,"x_min":35,"x_max":1361,"o":"m 328 0 l 35 928 l 189 928 l 407 178 l 624 928 l 772 928 l 988 178 l 1207 928 l 1361 928 l 1068 0 l 915 0 l 697 743 l 479 0 l 328 0 m 661 1032 l 761 1242 l 893 1242 l 751 1032 l 661 1032 z "},"Ŵ":{"ha":1396,"x_min":35,"x_max":1361,"o":"m 328 0 l 35 928 l 189 928 l 407 178 l 624 928 l 772 928 l 988 178 l 1207 928 l 1361 928 l 1068 0 l 915 0 l 697 743 l 479 0 l 328 0 m 497 1032 l 638 1242 l 761 1242 l 901 1032 l 799 1032 l 699 1171 l 600 1032 l 497 1032 z "},"Ẅ":{"ha":1396,"x_min":35,"x_max":1361,"o":"m 328 0 l 35 928 l 189 928 l 407 178 l 624 928 l 772 928 l 988 178 l 1207 928 l 1361 928 l 1068 0 l 915 0 l 697 743 l 479 0 l 328 0 m 832 1069 q 780 1089 799 1069 q 761 1138 761 1108 q 780 1185 761 1167 q 832 1204 799 1204 q 883 1185 864 1204 q 903 1138 903 1167 q 883 1089 903 1108 q 832 1069 864 1069 m 567 1069 q 515 1089 533 1069 q 496 1138 496 1108 q 515 1185 496 1167 q 567 1204 533 1204 q 618 1185 599 1204 q 638 1138 638 1167 q 618 1089 638 1108 q 567 1069 599 1069 z "},"Ẁ":{"ha":1396,"x_min":35,"x_max":1361,"o":"m 328 0 l 35 928 l 189 928 l 407 178 l 624 928 l 772 928 l 988 178 l 1207 928 l 1361 928 l 1068 0 l 915 0 l 697 743 l 479 0 l 328 0 m 661 1032 l 519 1242 l 651 1242 l 751 1032 l 661 1032 z "},"X":{"ha":946,"x_min":35,"x_max":911,"o":"m 35 0 l 383 478 l 49 928 l 213 928 l 472 576 l 732 928 l 897 928 l 560 478 l 911 0 l 746 0 l 472 379 l 199 0 l 35 0 z "},"Y":{"ha":946,"x_min":35,"x_max":911,"o":"m 403 0 l 403 358 l 35 928 l 199 928 l 472 489 l 747 928 l 911 928 l 543 358 l 543 0 l 403 0 z "},"Ý":{"ha":946,"x_min":35,"x_max":911,"o":"m 403 0 l 403 358 l 35 928 l 199 928 l 472 489 l 747 928 l 911 928 l 543 358 l 543 0 l 403 0 m 436 1032 l 536 1242 l 668 1242 l 526 1032 l 436 1032 z "},"Ŷ":{"ha":946,"x_min":35,"x_max":911,"o":"m 403 0 l 403 358 l 35 928 l 199 928 l 472 489 l 747 928 l 911 928 l 543 358 l 543 0 l 403 0 m 272 1032 l 413 1242 l 536 1242 l 676 1032 l 574 1032 l 474 1171 l 375 1032 l 272 1032 z "},"Ÿ":{"ha":946,"x_min":35,"x_max":911,"o":"m 403 0 l 403 358 l 35 928 l 199 928 l 472 489 l 747 928 l 911 928 l 543 358 l 543 0 l 403 0 m 607 1069 q 555 1089 574 1069 q 536 1138 536 1108 q 555 1185 536 1167 q 607 1204 574 1204 q 658 1185 639 1204 q 678 1138 678 1167 q 658 1089 678 1108 q 607 1069 639 1069 m 342 1069 q 290 1089 308 1069 q 271 1138 271 1108 q 290 1185 271 1167 q 342 1204 308 1204 q 393 1185 374 1204 q 413 1138 413 1167 q 393 1089 413 1108 q 342 1069 374 1069 z "},"Ỳ":{"ha":946,"x_min":35,"x_max":911,"o":"m 403 0 l 403 358 l 35 928 l 199 928 l 472 489 l 747 928 l 911 928 l 543 358 l 543 0 l 403 0 m 436 1032 l 294 1242 l 426 1242 l 526 1032 l 436 1032 z "},"Z":{"ha":797,"x_min":57,"x_max":740,"o":"m 57 0 l 57 110 l 556 806 l 71 806 l 71 928 l 726 928 l 726 819 l 226 124 l 740 124 l 740 0 l 57 0 z "},"Ź":{"ha":797,"x_min":57,"x_max":740,"o":"m 57 0 l 57 110 l 556 806 l 71 806 l 71 928 l 726 928 l 726 819 l 226 124 l 740 124 l 740 0 l 57 0 m 361 1032 l 461 1242 l 593 1242 l 451 1032 l 361 1032 z "},"Ž":{"ha":797,"x_min":57,"x_max":740,"o":"m 57 0 l 57 110 l 556 806 l 71 806 l 71 928 l 726 928 l 726 819 l 226 124 l 740 124 l 740 0 l 57 0 m 338 1032 l 197 1242 l 300 1242 l 399 1104 l 499 1242 l 601 1242 l 461 1032 l 338 1032 z "},"Ż":{"ha":797,"x_min":57,"x_max":740,"o":"m 57 0 l 57 110 l 556 806 l 71 806 l 71 928 l 726 928 l 726 819 l 226 124 l 740 124 l 740 0 l 57 0 m 399 1069 q 347 1089 367 1069 q 328 1138 328 1108 q 347 1185 328 1167 q 399 1204 367 1204 q 450 1185 431 1204 q 469 1138 469 1167 q 450 1089 469 1108 q 399 1069 431 1069 z "},"a":{"ha":778,"x_min":68,"x_max":675,"o":"m 311 -14 q 184 9 239 -14 q 99 76 129 32 q 68 182 68 119 q 99 285 68 244 q 185 351 129 326 q 311 383 240 375 l 542 411 q 486 519 533 485 q 369 554 439 554 q 272 535 322 554 q 164 476 221 517 l 115 575 q 235 642 169 618 q 372 667 301 667 q 598 599 521 667 q 675 397 675 532 l 675 0 l 549 0 l 549 94 q 452 13 513 40 q 311 -14 392 -14 m 342 97 q 452 123 407 97 q 520 192 497 149 q 543 282 543 235 l 543 311 l 349 286 q 239 255 276 276 q 201 186 201 233 q 239 120 201 143 q 342 97 276 97 z "},"á":{"ha":778,"x_min":68,"x_max":675,"o":"m 311 -14 q 184 9 239 -14 q 99 76 129 32 q 68 182 68 119 q 99 285 68 244 q 185 351 129 326 q 311 383 240 375 l 542 411 q 486 519 533 485 q 369 554 439 554 q 272 535 322 554 q 164 476 221 517 l 115 575 q 235 642 169 618 q 372 667 301 667 q 598 599 521 667 q 675 397 675 532 l 675 0 l 549 0 l 549 94 q 452 13 513 40 q 311 -14 392 -14 m 342 97 q 452 123 407 97 q 520 192 497 149 q 543 282 543 235 l 543 311 l 349 286 q 239 255 276 276 q 201 186 201 233 q 239 120 201 143 q 342 97 276 97 m 351 757 l 451 967 l 583 967 l 442 757 l 351 757 z "},"ă":{"ha":778,"x_min":68,"x_max":675,"o":"m 311 -14 q 184 9 239 -14 q 99 76 129 32 q 68 182 68 119 q 99 285 68 244 q 185 351 129 326 q 311 383 240 375 l 542 411 q 486 519 533 485 q 369 554 439 554 q 272 535 322 554 q 164 476 221 517 l 115 575 q 235 642 169 618 q 372 667 301 667 q 598 599 521 667 q 675 397 675 532 l 675 0 l 549 0 l 549 94 q 452 13 513 40 q 311 -14 392 -14 m 342 97 q 452 123 407 97 q 520 192 497 149 q 543 282 543 235 l 543 311 l 349 286 q 239 255 276 276 q 201 186 201 233 q 239 120 201 143 q 342 97 276 97 m 389 743 q 247 794 293 743 q 201 925 201 844 l 201 967 l 288 967 l 288 925 q 313 856 288 882 q 389 831 339 831 q 465 856 439 831 q 490 925 490 882 l 490 967 l 578 967 l 578 925 q 531 794 578 844 q 389 743 485 743 z "},"ǎ":{"ha":778,"x_min":68,"x_max":675,"o":"m 311 -14 q 184 9 239 -14 q 99 76 129 32 q 68 182 68 119 q 99 285 68 244 q 185 351 129 326 q 311 383 240 375 l 542 411 q 486 519 533 485 q 369 554 439 554 q 272 535 322 554 q 164 476 221 517 l 115 575 q 235 642 169 618 q 372 667 301 667 q 598 599 521 667 q 675 397 675 532 l 675 0 l 549 0 l 549 94 q 452 13 513 40 q 311 -14 392 -14 m 342 97 q 452 123 407 97 q 520 192 497 149 q 543 282 543 235 l 543 311 l 349 286 q 239 255 276 276 q 201 186 201 233 q 239 120 201 143 q 342 97 276 97 m 328 757 l 188 967 l 290 967 l 389 829 l 489 967 l 592 967 l 451 757 l 328 757 z "},"â":{"ha":778,"x_min":68,"x_max":675,"o":"m 311 -14 q 184 9 239 -14 q 99 76 129 32 q 68 182 68 119 q 99 285 68 244 q 185 351 129 326 q 311 383 240 375 l 542 411 q 486 519 533 485 q 369 554 439 554 q 272 535 322 554 q 164 476 221 517 l 115 575 q 235 642 169 618 q 372 667 301 667 q 598 599 521 667 q 675 397 675 532 l 675 0 l 549 0 l 549 94 q 452 13 513 40 q 311 -14 392 -14 m 342 97 q 452 123 407 97 q 520 192 497 149 q 543 282 543 235 l 543 311 l 349 286 q 239 255 276 276 q 201 186 201 233 q 239 120 201 143 q 342 97 276 97 m 188 757 l 328 967 l 451 967 l 592 757 l 489 757 l 389 896 l 290 757 l 188 757 z "},"ä":{"ha":778,"x_min":68,"x_max":675,"o":"m 311 -14 q 184 9 239 -14 q 99 76 129 32 q 68 182 68 119 q 99 285 68 244 q 185 351 129 326 q 311 383 240 375 l 542 411 q 486 519 533 485 q 369 554 439 554 q 272 535 322 554 q 164 476 221 517 l 115 575 q 235 642 169 618 q 372 667 301 667 q 598 599 521 667 q 675 397 675 532 l 675 0 l 549 0 l 549 94 q 452 13 513 40 q 311 -14 392 -14 m 342 97 q 452 123 407 97 q 520 192 497 149 q 543 282 543 235 l 543 311 l 349 286 q 239 255 276 276 q 201 186 201 233 q 239 120 201 143 q 342 97 276 97 m 522 794 q 470 814 489 794 q 451 863 451 833 q 470 910 451 892 q 522 929 489 929 q 574 910 554 929 q 593 863 593 892 q 574 814 593 833 q 522 794 554 794 m 257 794 q 205 814 224 794 q 186 863 186 833 q 205 910 186 892 q 257 929 224 929 q 308 910 289 929 q 328 863 328 892 q 308 814 328 833 q 257 794 289 794 z "},"à":{"ha":778,"x_min":68,"x_max":675,"o":"m 311 -14 q 184 9 239 -14 q 99 76 129 32 q 68 182 68 119 q 99 285 68 244 q 185 351 129 326 q 311 383 240 375 l 542 411 q 486 519 533 485 q 369 554 439 554 q 272 535 322 554 q 164 476 221 517 l 115 575 q 235 642 169 618 q 372 667 301 667 q 598 599 521 667 q 675 397 675 532 l 675 0 l 549 0 l 549 94 q 452 13 513 40 q 311 -14 392 -14 m 342 97 q 452 123 407 97 q 520 192 497 149 q 543 282 543 235 l 543 311 l 349 286 q 239 255 276 276 q 201 186 201 233 q 239 120 201 143 q 342 97 276 97 m 351 757 l 210 967 l 342 967 l 442 757 l 351 757 z "},"ā":{"ha":778,"x_min":68,"x_max":675,"o":"m 311 -14 q 184 9 239 -14 q 99 76 129 32 q 68 182 68 119 q 99 285 68 244 q 185 351 129 326 q 311 383 240 375 l 542 411 q 486 519 533 485 q 369 554 439 554 q 272 535 322 554 q 164 476 221 517 l 115 575 q 235 642 169 618 q 372 667 301 667 q 598 599 521 667 q 675 397 675 532 l 675 0 l 549 0 l 549 94 q 452 13 513 40 q 311 -14 392 -14 m 342 97 q 452 123 407 97 q 520 192 497 149 q 543 282 543 235 l 543 311 l 349 286 q 239 255 276 276 q 201 186 201 233 q 239 120 201 143 q 342 97 276 97 m 201 818 l 201 907 l 578 907 l 578 818 l 201 818 z "},"ą":{"ha":778,"x_min":68,"x_max":675,"o":"m 311 -14 q 184 9 239 -14 q 99 76 129 32 q 68 182 68 119 q 99 285 68 244 q 185 351 129 326 q 311 383 240 375 l 542 411 q 486 519 533 485 q 369 554 439 554 q 272 535 322 554 q 164 476 221 517 l 115 575 q 235 642 169 618 q 372 667 301 667 q 598 599 521 667 q 675 397 675 532 l 675 0 l 549 0 l 549 94 q 452 13 513 40 q 311 -14 392 -14 m 342 97 q 452 123 407 97 q 520 192 497 149 q 543 282 543 235 l 543 311 l 349 286 q 239 255 276 276 q 201 186 201 233 q 239 120 201 143 q 342 97 276 97 m 579 -265 q 479 -240 513 -265 q 446 -161 446 -214 q 486 -69 446 -111 q 589 0 526 -28 l 675 0 q 573 -71 613 -29 q 533 -146 533 -112 q 588 -187 533 -187 q 629 -185 606 -187 q 675 -179 653 -183 l 675 -253 q 624 -262 650 -260 q 579 -265 599 -265 z "},"å":{"ha":778,"x_min":68,"x_max":675,"o":"m 311 -14 q 184 9 239 -14 q 99 76 129 32 q 68 182 68 119 q 99 285 68 244 q 185 351 129 326 q 311 383 240 375 l 542 411 q 486 519 533 485 q 369 554 439 554 q 272 535 322 554 q 164 476 221 517 l 115 575 q 235 642 169 618 q 372 667 301 667 q 598 599 521 667 q 675 397 675 532 l 675 0 l 549 0 l 549 94 q 452 13 513 40 q 311 -14 392 -14 m 342 97 q 452 123 407 97 q 520 192 497 149 q 543 282 543 235 l 543 311 l 349 286 q 239 255 276 276 q 201 186 201 233 q 239 120 201 143 q 342 97 276 97 m 389 715 q 274 757 317 715 q 231 863 231 799 q 274 967 231 926 q 389 1008 317 1008 q 505 967 461 1008 q 549 863 549 926 q 505 757 549 799 q 389 715 461 715 m 389 776 q 453 800 429 776 q 476 863 476 824 q 453 924 476 900 q 389 947 429 947 q 326 924 350 947 q 301 863 301 900 q 325 800 301 824 q 389 776 349 776 z "},"ã":{"ha":778,"x_min":68,"x_max":675,"o":"m 311 -14 q 184 9 239 -14 q 99 76 129 32 q 68 182 68 119 q 99 285 68 244 q 185 351 129 326 q 311 383 240 375 l 542 411 q 486 519 533 485 q 369 554 439 554 q 272 535 322 554 q 164 476 221 517 l 115 575 q 235 642 169 618 q 372 667 301 667 q 598 599 521 667 q 675 397 675 532 l 675 0 l 549 0 l 549 94 q 452 13 513 40 q 311 -14 392 -14 m 342 97 q 452 123 407 97 q 520 192 497 149 q 543 282 543 235 l 543 311 l 349 286 q 239 255 276 276 q 201 186 201 233 q 239 120 201 143 q 342 97 276 97 m 174 774 q 187 872 174 833 q 228 931 200 911 q 297 951 256 951 q 353 938 328 951 q 401 906 379 924 q 442 874 422 888 q 479 860 463 860 q 512 880 500 860 q 526 951 524 900 l 606 951 q 592 853 606 893 q 551 794 578 814 q 481 774 524 774 q 426 788 451 774 q 378 819 400 801 q 336 850 356 836 q 299 864 317 864 q 267 844 279 864 q 253 774 256 825 l 174 774 z "},"æ":{"ha":1254,"x_min":68,"x_max":1186,"o":"m 311 -14 q 184 9 239 -14 q 99 76 129 32 q 68 182 68 119 q 99 285 68 244 q 185 350 129 326 q 311 383 240 374 l 542 411 q 486 519 533 485 q 369 554 439 554 q 272 535 322 554 q 164 476 221 517 l 115 575 q 235 642 169 618 q 372 667 301 667 q 528 638 465 667 q 625 550 592 608 q 731 636 668 606 q 872 667 794 667 q 1039 630 968 667 q 1148 529 1110 593 q 1186 385 1186 465 q 1180 333 1186 361 q 1164 289 1174 306 l 678 289 q 713 185 685 228 q 790 120 742 142 q 903 99 839 99 q 1016 118 967 99 q 1111 174 1065 138 l 1158 76 q 1037 9 1104 32 q 890 -14 969 -14 q 722 24 797 -14 q 601 136 646 63 q 484 26 560 65 q 311 -14 408 -14 m 342 97 q 452 123 407 97 q 520 192 497 149 q 543 282 543 235 l 543 311 l 349 286 q 239 254 276 275 q 201 186 201 233 q 239 120 201 143 q 342 97 276 97 m 678 390 l 1050 390 q 1051 396 1051 393 q 1051 404 1051 399 q 1032 484 1051 450 q 974 538 1013 518 q 876 557 935 557 q 787 537 828 557 q 717 480 746 517 q 678 390 689 443 z "},"b":{"ha":842,"x_min":104,"x_max":774,"o":"m 461 -14 q 321 19 381 -14 q 231 104 261 51 l 231 0 l 104 0 l 104 928 l 235 928 l 235 558 q 325 637 267 607 q 461 667 383 667 q 622 626 551 667 q 733 508 693 585 q 774 326 774 432 q 733 146 774 222 q 622 28 693 69 q 461 -14 551 -14 m 435 101 q 540 128 494 101 q 613 206 586 156 q 639 326 639 257 q 613 447 639 396 q 541 525 588 497 q 435 553 494 553 q 328 525 375 553 q 256 447 282 497 q 231 326 231 396 q 256 206 231 257 q 328 128 282 156 q 435 101 375 101 z "},"c":{"ha":703,"x_min":68,"x_max":643,"o":"m 410 -14 q 232 28 310 -14 q 111 147 154 71 q 68 326 68 224 q 111 506 68 429 q 232 624 154 582 q 410 667 310 667 q 539 647 481 667 q 643 588 597 626 l 594 489 q 503 537 550 521 q 410 553 457 553 q 301 525 347 553 q 228 447 254 497 q 201 326 201 397 q 228 206 201 257 q 301 128 254 156 q 410 101 347 101 q 503 117 457 101 q 594 165 550 132 l 643 65 q 539 7 597 28 q 410 -14 481 -14 z "},"ć":{"ha":703,"x_min":68,"x_max":643,"o":"m 410 -14 q 232 28 310 -14 q 111 147 154 71 q 68 326 68 224 q 111 506 68 429 q 232 624 154 582 q 410 667 310 667 q 539 647 481 667 q 643 588 597 626 l 594 489 q 503 537 550 521 q 410 553 457 553 q 301 525 347 553 q 228 447 254 497 q 201 326 201 397 q 228 206 201 257 q 301 128 254 156 q 410 101 347 101 q 503 117 457 101 q 594 165 550 132 l 643 65 q 539 7 597 28 q 410 -14 481 -14 m 363 757 l 463 967 l 594 967 l 453 757 l 363 757 z "},"č":{"ha":703,"x_min":68,"x_max":643,"o":"m 410 -14 q 232 28 310 -14 q 111 147 154 71 q 68 326 68 224 q 111 506 68 429 q 232 624 154 582 q 410 667 310 667 q 539 647 481 667 q 643 588 597 626 l 594 489 q 503 537 550 521 q 410 553 457 553 q 301 525 347 553 q 228 447 254 497 q 201 326 201 397 q 228 206 201 257 q 301 128 254 156 q 410 101 347 101 q 503 117 457 101 q 594 165 550 132 l 643 65 q 539 7 597 28 q 410 -14 481 -14 m 339 757 l 199 967 l 301 967 l 400 829 l 500 967 l 603 967 l 463 757 l 339 757 z "},"ç":{"ha":703,"x_min":68,"x_max":643,"o":"m 410 -14 q 232 28 310 -14 q 111 147 154 71 q 68 326 68 224 q 111 506 68 429 q 232 624 154 582 q 410 667 310 667 q 539 647 481 667 q 643 588 597 626 l 594 489 q 503 537 550 521 q 410 553 457 553 q 301 525 347 553 q 228 447 254 497 q 201 326 201 397 q 228 206 201 257 q 301 128 254 156 q 410 101 347 101 q 503 117 457 101 q 594 165 550 132 l 643 65 q 539 7 597 28 q 410 -14 481 -14 m 354 -265 q 308 -262 335 -265 q 257 -253 281 -260 l 257 -185 q 303 -192 276 -190 q 347 -194 329 -194 q 399 -183 382 -194 q 415 -146 415 -171 q 399 -112 415 -124 q 347 -100 382 -100 l 315 -100 l 315 -64 l 351 15 l 421 15 l 385 -64 q 472 -88 440 -64 q 503 -156 503 -112 q 465 -235 503 -206 q 354 -265 426 -265 z "},"ċ":{"ha":703,"x_min":68,"x_max":643,"o":"m 410 -14 q 232 28 310 -14 q 111 147 154 71 q 68 326 68 224 q 111 506 68 429 q 232 624 154 582 q 410 667 310 667 q 539 647 481 667 q 643 588 597 626 l 594 489 q 503 537 550 521 q 410 553 457 553 q 301 525 347 553 q 228 447 254 497 q 201 326 201 397 q 228 206 201 257 q 301 128 254 156 q 410 101 347 101 q 503 117 457 101 q 594 165 550 132 l 643 65 q 539 7 597 28 q 410 -14 481 -14 m 400 794 q 349 814 368 794 q 329 863 329 833 q 349 910 329 892 q 400 929 368 929 q 451 910 432 929 q 471 863 471 892 q 451 814 471 833 q 400 794 432 794 z "},"d":{"ha":842,"x_min":68,"x_max":739,"o":"m 381 -14 q 221 28 292 -14 q 109 146 150 69 q 68 326 68 222 q 109 508 68 432 q 221 626 150 585 q 381 667 292 667 q 517 637 458 667 q 607 558 575 607 l 607 928 l 739 928 l 739 0 l 613 0 l 613 104 q 522 19 582 51 q 381 -14 463 -14 m 408 101 q 514 128 468 101 q 586 206 560 156 q 613 326 613 257 q 586 447 613 396 q 514 525 560 497 q 408 553 468 553 q 302 525 349 553 q 229 447 256 497 q 203 326 203 396 q 229 206 203 257 q 301 128 256 156 q 408 101 347 101 z "},"ð":{"ha":819,"x_min":68,"x_max":753,"o":"m 410 -14 q 233 26 310 -14 q 112 137 156 65 q 68 303 68 208 q 108 464 68 396 q 219 570 147 532 q 388 608 292 608 q 467 596 432 608 q 525 565 501 583 l 383 761 l 232 706 l 232 789 l 335 829 l 264 928 l 401 928 l 446 867 l 608 928 l 608 844 l 493 799 l 632 604 q 701 497 675 543 q 740 406 728 451 q 753 303 753 360 q 709 137 753 208 q 588 26 665 65 q 410 -14 511 -14 m 410 101 q 519 126 472 101 q 592 198 567 151 q 618 307 618 244 q 592 415 618 368 q 519 486 567 461 q 410 511 472 511 q 301 486 347 511 q 228 415 254 461 q 201 307 201 368 q 228 198 201 244 q 301 126 254 151 q 410 101 347 101 z "},"ď":{"ha":842,"x_min":68,"x_max":1088,"o":"m 381 -14 q 221 28 292 -14 q 109 146 150 69 q 68 326 68 222 q 109 508 68 432 q 221 626 150 585 q 381 667 292 667 q 517 637 458 667 q 607 558 575 607 l 607 928 l 739 928 l 739 0 l 613 0 l 613 104 q 522 19 582 51 q 381 -14 463 -14 m 408 101 q 514 128 468 101 q 586 206 560 156 q 613 326 613 257 q 586 447 613 396 q 514 525 560 497 q 408 553 468 553 q 302 525 349 553 q 229 447 256 497 q 203 326 203 396 q 229 206 203 257 q 301 128 256 156 q 408 101 347 101 m 919 539 l 954 928 l 1088 928 l 1013 539 l 919 539 z "},"đ":{"ha":842,"x_min":68,"x_max":811,"o":"m 381 -14 q 221 28 292 -14 q 109 146 150 69 q 68 326 68 222 q 109 508 68 432 q 221 626 150 585 q 381 667 292 667 q 517 637 458 667 q 607 558 575 607 l 607 928 l 739 928 l 739 0 l 613 0 l 613 104 q 522 19 582 51 q 381 -14 463 -14 m 408 101 q 514 128 468 101 q 586 206 560 156 q 613 326 613 257 q 586 447 613 396 q 514 525 560 497 q 408 553 468 553 q 302 525 349 553 q 229 447 256 497 q 203 326 203 396 q 229 206 203 257 q 301 128 256 156 q 408 101 347 101 m 435 740 l 435 846 l 811 846 l 811 740 l 435 740 z "},"e":{"ha":778,"x_min":68,"x_max":711,"o":"m 415 -14 q 238 26 317 -14 q 114 141 160 65 q 68 326 68 217 q 112 507 68 431 q 230 625 156 583 q 396 667 304 667 q 563 630 493 667 q 672 529 633 593 q 711 385 711 465 q 705 333 711 361 q 688 289 699 306 l 201 289 q 238 185 208 228 q 315 120 267 142 q 428 99 364 99 q 541 118 492 99 q 636 174 590 138 l 683 76 q 562 9 629 32 q 415 -14 494 -14 m 201 390 l 575 390 q 576 397 576 393 q 576 404 576 400 q 557 484 576 450 q 499 538 538 518 q 400 557 460 557 q 312 537 353 557 q 242 480 271 517 q 201 390 214 443 z "},"é":{"ha":778,"x_min":68,"x_max":711,"o":"m 415 -14 q 238 26 317 -14 q 114 141 160 65 q 68 326 68 217 q 112 507 68 431 q 230 625 156 583 q 396 667 304 667 q 563 630 493 667 q 672 529 633 593 q 711 385 711 465 q 705 333 711 361 q 688 289 699 306 l 201 289 q 238 185 208 228 q 315 120 267 142 q 428 99 364 99 q 541 118 492 99 q 636 174 590 138 l 683 76 q 562 9 629 32 q 415 -14 494 -14 m 201 390 l 575 390 q 576 397 576 393 q 576 404 576 400 q 557 484 576 450 q 499 538 538 518 q 400 557 460 557 q 312 537 353 557 q 242 480 271 517 q 201 390 214 443 m 351 757 l 451 967 l 583 967 l 442 757 l 351 757 z "},"ě":{"ha":778,"x_min":68,"x_max":711,"o":"m 415 -14 q 238 26 317 -14 q 114 141 160 65 q 68 326 68 217 q 112 507 68 431 q 230 625 156 583 q 396 667 304 667 q 563 630 493 667 q 672 529 633 593 q 711 385 711 465 q 705 333 711 361 q 688 289 699 306 l 201 289 q 238 185 208 228 q 315 120 267 142 q 428 99 364 99 q 541 118 492 99 q 636 174 590 138 l 683 76 q 562 9 629 32 q 415 -14 494 -14 m 201 390 l 575 390 q 576 397 576 393 q 576 404 576 400 q 557 484 576 450 q 499 538 538 518 q 400 557 460 557 q 312 537 353 557 q 242 480 271 517 q 201 390 214 443 m 328 757 l 188 967 l 290 967 l 389 829 l 489 967 l 592 967 l 451 757 l 328 757 z "},"ê":{"ha":778,"x_min":68,"x_max":711,"o":"m 415 -14 q 238 26 317 -14 q 114 141 160 65 q 68 326 68 217 q 112 507 68 431 q 230 625 156 583 q 396 667 304 667 q 563 630 493 667 q 672 529 633 593 q 711 385 711 465 q 705 333 711 361 q 688 289 699 306 l 201 289 q 238 185 208 228 q 315 120 267 142 q 428 99 364 99 q 541 118 492 99 q 636 174 590 138 l 683 76 q 562 9 629 32 q 415 -14 494 -14 m 201 390 l 575 390 q 576 397 576 393 q 576 404 576 400 q 557 484 576 450 q 499 538 538 518 q 400 557 460 557 q 312 537 353 557 q 242 480 271 517 q 201 390 214 443 m 188 757 l 328 967 l 451 967 l 592 757 l 489 757 l 389 896 l 290 757 l 188 757 z "},"ë":{"ha":778,"x_min":68,"x_max":711,"o":"m 415 -14 q 238 26 317 -14 q 114 141 160 65 q 68 326 68 217 q 112 507 68 431 q 230 625 156 583 q 396 667 304 667 q 563 630 493 667 q 672 529 633 593 q 711 385 711 465 q 705 333 711 361 q 688 289 699 306 l 201 289 q 238 185 208 228 q 315 120 267 142 q 428 99 364 99 q 541 118 492 99 q 636 174 590 138 l 683 76 q 562 9 629 32 q 415 -14 494 -14 m 201 390 l 575 390 q 576 397 576 393 q 576 404 576 400 q 557 484 576 450 q 499 538 538 518 q 400 557 460 557 q 312 537 353 557 q 242 480 271 517 q 201 390 214 443 m 522 794 q 470 814 489 794 q 451 863 451 833 q 470 910 451 892 q 522 929 489 929 q 574 910 554 929 q 593 863 593 892 q 574 814 593 833 q 522 794 554 794 m 257 794 q 205 814 224 794 q 186 863 186 833 q 205 910 186 892 q 257 929 224 929 q 308 910 289 929 q 328 863 328 892 q 308 814 328 833 q 257 794 289 794 z "},"ė":{"ha":778,"x_min":68,"x_max":711,"o":"m 415 -14 q 238 26 317 -14 q 114 141 160 65 q 68 326 68 217 q 112 507 68 431 q 230 625 156 583 q 396 667 304 667 q 563 630 493 667 q 672 529 633 593 q 711 385 711 465 q 705 333 711 361 q 688 289 699 306 l 201 289 q 238 185 208 228 q 315 120 267 142 q 428 99 364 99 q 541 118 492 99 q 636 174 590 138 l 683 76 q 562 9 629 32 q 415 -14 494 -14 m 201 390 l 575 390 q 576 397 576 393 q 576 404 576 400 q 557 484 576 450 q 499 538 538 518 q 400 557 460 557 q 312 537 353 557 q 242 480 271 517 q 201 390 214 443 m 389 794 q 338 814 357 794 q 318 863 318 833 q 338 910 318 892 q 389 929 357 929 q 440 910 421 929 q 460 863 460 892 q 440 814 460 833 q 389 794 421 794 z "},"è":{"ha":778,"x_min":68,"x_max":711,"o":"m 415 -14 q 238 26 317 -14 q 114 141 160 65 q 68 326 68 217 q 112 507 68 431 q 230 625 156 583 q 396 667 304 667 q 563 630 493 667 q 672 529 633 593 q 711 385 711 465 q 705 333 711 361 q 688 289 699 306 l 201 289 q 238 185 208 228 q 315 120 267 142 q 428 99 364 99 q 541 118 492 99 q 636 174 590 138 l 683 76 q 562 9 629 32 q 415 -14 494 -14 m 201 390 l 575 390 q 576 397 576 393 q 576 404 576 400 q 557 484 576 450 q 499 538 538 518 q 400 557 460 557 q 312 537 353 557 q 242 480 271 517 q 201 390 214 443 m 351 757 l 210 967 l 342 967 l 442 757 l 351 757 z "},"ē":{"ha":778,"x_min":68,"x_max":711,"o":"m 415 -14 q 238 26 317 -14 q 114 141 160 65 q 68 326 68 217 q 112 507 68 431 q 230 625 156 583 q 396 667 304 667 q 563 630 493 667 q 672 529 633 593 q 711 385 711 465 q 705 333 711 361 q 688 289 699 306 l 201 289 q 238 185 208 228 q 315 120 267 142 q 428 99 364 99 q 541 118 492 99 q 636 174 590 138 l 683 76 q 562 9 629 32 q 415 -14 494 -14 m 201 390 l 575 390 q 576 397 576 393 q 576 404 576 400 q 557 484 576 450 q 499 538 538 518 q 400 557 460 557 q 312 537 353 557 q 242 480 271 517 q 201 390 214 443 m 201 818 l 201 907 l 578 907 l 578 818 l 201 818 z "},"ę":{"ha":778,"x_min":68,"x_max":711,"o":"m 415 -14 q 238 26 317 -14 q 114 141 160 65 q 68 326 68 217 q 112 507 68 431 q 230 625 156 583 q 396 667 304 667 q 563 630 493 667 q 672 529 633 593 q 711 385 711 465 q 705 333 711 361 q 688 289 699 306 l 201 289 q 238 185 208 228 q 315 120 267 142 q 428 99 364 99 q 541 118 492 99 q 636 174 590 138 l 683 76 q 562 9 629 32 q 415 -14 494 -14 m 201 390 l 575 390 q 576 397 576 393 q 576 404 576 400 q 557 484 576 450 q 499 538 538 518 q 400 557 460 557 q 312 537 353 557 q 242 480 271 517 q 201 390 214 443 m 435 -265 q 335 -240 368 -265 q 301 -161 301 -214 q 342 -69 301 -111 q 444 0 382 -28 l 531 0 q 428 -71 468 -29 q 389 -146 389 -112 q 443 -187 389 -187 q 485 -185 461 -187 q 531 -179 508 -183 l 531 -253 q 480 -262 506 -260 q 435 -265 454 -265 z "},"f":{"ha":510,"x_min":33,"x_max":476,"o":"m 176 0 l 176 542 l 33 542 l 33 653 l 176 653 l 176 739 q 226 888 176 840 q 378 936 275 936 q 432 933 404 936 q 476 925 460 931 l 476 819 q 442 824 464 822 q 404 825 421 825 q 331 801 354 825 q 307 729 307 776 l 307 653 l 476 653 l 476 542 l 307 542 l 307 0 l 176 0 z "},"g":{"ha":842,"x_min":68,"x_max":739,"o":"m 389 -267 q 237 -242 308 -267 q 101 -161 165 -217 l 149 -64 q 269 -133 211 -114 q 382 -153 326 -153 q 547 -96 488 -153 q 607 72 607 -39 l 607 131 q 517 57 575 86 q 381 28 460 28 q 226 65 297 28 q 111 174 154 103 q 68 347 68 246 q 111 521 68 450 q 226 629 154 592 q 381 667 297 667 q 523 635 464 667 q 613 556 582 603 l 613 653 l 739 653 l 739 92 q 697 -103 739 -22 q 576 -225 654 -183 q 389 -267 499 -267 m 408 140 q 510 164 464 140 q 583 234 556 188 q 611 347 611 281 q 583 461 611 415 q 510 531 556 507 q 408 554 464 554 q 306 531 353 554 q 231 461 260 507 q 203 347 203 415 q 231 234 203 281 q 306 164 260 188 q 408 140 353 140 z "},"ğ":{"ha":842,"x_min":68,"x_max":739,"o":"m 389 -267 q 237 -242 308 -267 q 101 -161 165 -217 l 149 -64 q 269 -133 211 -114 q 382 -153 326 -153 q 547 -96 488 -153 q 607 72 607 -39 l 607 131 q 517 57 575 86 q 381 28 460 28 q 226 65 297 28 q 111 174 154 103 q 68 347 68 246 q 111 521 68 450 q 226 629 154 592 q 381 667 297 667 q 523 635 464 667 q 613 556 582 603 l 613 653 l 739 653 l 739 92 q 697 -103 739 -22 q 576 -225 654 -183 q 389 -267 499 -267 m 408 140 q 510 164 464 140 q 583 234 556 188 q 611 347 611 281 q 583 461 611 415 q 510 531 556 507 q 408 554 464 554 q 306 531 353 554 q 231 461 260 507 q 203 347 203 415 q 231 234 203 281 q 306 164 260 188 q 408 140 353 140 m 422 743 q 281 794 326 743 q 235 925 235 844 l 235 967 l 321 967 l 321 925 q 347 856 321 882 q 422 831 372 831 q 498 856 472 831 q 524 925 524 882 l 524 967 l 611 967 l 611 925 q 565 794 611 844 q 422 743 518 743 z "},"ģ":{"ha":842,"x_min":68,"x_max":739,"o":"m 389 -267 q 237 -242 308 -267 q 101 -161 165 -217 l 149 -64 q 269 -133 211 -114 q 382 -153 326 -153 q 547 -96 488 -153 q 607 72 607 -39 l 607 131 q 517 57 575 86 q 381 28 460 28 q 226 65 297 28 q 111 174 154 103 q 68 347 68 246 q 111 521 68 450 q 226 629 154 592 q 381 667 297 667 q 523 635 464 667 q 613 556 582 603 l 613 653 l 739 653 l 739 92 q 697 -103 739 -22 q 576 -225 654 -183 q 389 -267 499 -267 m 408 140 q 510 164 464 140 q 583 234 556 188 q 611 347 611 281 q 583 461 611 415 q 510 531 556 507 q 408 554 464 554 q 306 531 353 554 q 231 461 260 507 q 203 347 203 415 q 231 234 203 281 q 306 164 260 188 q 408 140 353 140 m 440 1014 l 510 981 q 479 917 492 950 q 460 851 467 885 q 453 782 453 818 l 453 738 l 333 738 l 333 782 q 358 918 333 864 q 440 1014 383 972 z "},"ġ":{"ha":842,"x_min":68,"x_max":739,"o":"m 389 -267 q 237 -242 308 -267 q 101 -161 165 -217 l 149 -64 q 269 -133 211 -114 q 382 -153 326 -153 q 547 -96 488 -153 q 607 72 607 -39 l 607 131 q 517 57 575 86 q 381 28 460 28 q 226 65 297 28 q 111 174 154 103 q 68 347 68 246 q 111 521 68 450 q 226 629 154 592 q 381 667 297 667 q 523 635 464 667 q 613 556 582 603 l 613 653 l 739 653 l 739 92 q 697 -103 739 -22 q 576 -225 654 -183 q 389 -267 499 -267 m 408 140 q 510 164 464 140 q 583 234 556 188 q 611 347 611 281 q 583 461 611 415 q 510 531 556 507 q 408 554 464 554 q 306 531 353 554 q 231 461 260 507 q 203 347 203 415 q 231 234 203 281 q 306 164 260 188 q 408 140 353 140 m 422 794 q 371 814 390 794 q 351 863 351 833 q 371 910 351 892 q 422 929 390 929 q 474 910 454 929 q 493 863 493 892 q 474 814 493 833 q 422 794 454 794 z "},"h":{"ha":792,"x_min":104,"x_max":689,"o":"m 104 0 l 104 928 l 235 928 l 235 564 q 319 640 265 613 q 449 667 372 667 q 625 603 561 667 q 689 403 689 539 l 689 0 l 557 0 l 557 386 q 522 513 557 474 q 414 553 486 553 q 282 494 329 553 q 235 335 235 436 l 235 0 l 104 0 z "},"ħ":{"ha":792,"x_min":19,"x_max":689,"o":"m 104 0 l 104 928 l 235 928 l 235 564 q 319 640 265 613 q 449 667 372 667 q 625 603 561 667 q 689 403 689 539 l 689 0 l 557 0 l 557 386 q 522 513 557 474 q 414 553 486 553 q 282 494 329 553 q 235 335 235 436 l 235 0 l 104 0 m 19 733 l 19 839 l 396 839 l 396 733 l 19 733 z "},"i":{"ha":339,"x_min":90,"x_max":249,"o":"m 104 0 l 104 653 l 235 653 l 235 0 l 104 0 m 169 788 q 112 808 133 788 q 90 863 90 829 q 112 917 90 896 q 169 938 133 938 q 226 917 204 938 q 249 863 249 896 q 226 808 249 829 q 169 788 204 788 z "},"ı":{"ha":339,"x_min":104,"x_max":235,"o":"m 104 0 l 104 653 l 235 653 l 235 0 l 104 0 z "},"í":{"ha":339,"x_min":104,"x_max":364,"o":"m 104 0 l 104 653 l 235 653 l 235 0 l 104 0 m 132 757 l 232 967 l 364 967 l 222 757 l 132 757 z "},"î":{"ha":339,"x_min":-32,"x_max":372,"o":"m 104 0 l 104 653 l 235 653 l 235 0 l 104 0 m -32 757 l 108 967 l 232 967 l 372 757 l 269 757 l 169 896 l 71 757 l -32 757 z "},"ï":{"ha":339,"x_min":-33,"x_max":374,"o":"m 104 0 l 104 653 l 235 653 l 235 0 l 104 0 m 303 794 q 251 814 269 794 q 232 863 232 833 q 251 910 232 892 q 303 929 269 929 q 354 910 335 929 q 374 863 374 892 q 354 814 374 833 q 303 794 335 794 m 38 794 q -15 814 4 794 q -33 863 -33 833 q -15 910 -33 892 q 38 929 4 929 q 89 910 69 929 q 108 863 108 892 q 89 814 108 833 q 38 794 69 794 z "},"ì":{"ha":339,"x_min":-10,"x_max":235,"o":"m 104 0 l 104 653 l 235 653 l 235 0 l 104 0 m 132 757 l -10 967 l 122 967 l 222 757 l 132 757 z "},"ĳ":{"ha":676,"x_min":90,"x_max":588,"o":"m 104 0 l 104 653 l 235 653 l 235 0 l 104 0 m 169 788 q 112 808 133 788 q 90 863 90 829 q 112 917 90 896 q 169 938 133 938 q 226 917 204 938 q 249 863 249 896 q 226 808 249 829 q 169 788 204 788 m 372 -261 q 326 -258 349 -261 q 285 -251 303 -256 l 285 -144 q 315 -147 299 -146 q 346 -149 331 -149 q 419 -125 394 -149 q 443 -53 443 -101 l 443 653 l 574 653 l 574 -64 q 524 -213 574 -165 q 372 -261 475 -261 m 508 788 q 451 808 472 788 q 429 863 429 829 q 451 917 429 896 q 508 938 472 938 q 565 917 543 938 q 588 863 588 896 q 565 808 588 829 q 508 788 543 788 z "},"ī":{"ha":339,"x_min":-18,"x_max":358,"o":"m 104 0 l 104 653 l 235 653 l 235 0 l 104 0 m -18 818 l -18 907 l 358 907 l 358 818 l -18 818 z "},"į":{"ha":339,"x_min":6,"x_max":240,"o":"m 104 0 l 104 653 l 235 653 l 235 0 l 104 0 m 169 794 q 118 814 138 794 q 99 863 99 833 q 118 910 99 892 q 169 929 138 929 q 221 910 201 929 q 240 863 240 892 q 221 814 240 833 q 169 794 201 794 m 140 -265 q 40 -240 74 -265 q 7 -161 7 -214 q 47 -69 7 -111 q 150 0 88 -28 l 236 0 q 134 -71 174 -29 q 94 -146 94 -112 q 149 -187 94 -187 q 190 -185 167 -187 q 236 -179 214 -183 l 236 -253 q 185 -262 211 -260 q 140 -265 160 -265 z "},"j":{"ha":339,"x_min":-54,"x_max":249,"o":"m 33 -261 q -13 -258 10 -261 q -54 -251 -36 -256 l -54 -144 q -24 -147 -40 -146 q 7 -149 -8 -149 q 80 -125 56 -149 q 104 -53 104 -101 l 104 653 l 235 653 l 235 -64 q 185 -213 235 -165 q 33 -261 136 -261 m 169 788 q 112 808 133 788 q 90 863 90 829 q 112 917 90 896 q 169 938 133 938 q 226 917 204 938 q 249 863 249 896 q 226 808 249 829 q 169 788 204 788 z "},"ȷ":{"ha":325,"x_min":-54,"x_max":235,"o":"m 33 -261 q -13 -258 10 -261 q -54 -250 -36 -256 l -54 -144 q -24 -147 -40 -146 q 7 -149 -8 -149 q 80 -125 56 -149 q 104 -53 104 -101 l 104 653 l 235 653 l 235 -64 q 185 -213 235 -165 q 33 -261 136 -261 z "},"k":{"ha":750,"x_min":104,"x_max":717,"o":"m 104 0 l 104 928 l 235 928 l 235 346 l 543 653 l 703 653 l 431 386 l 717 0 l 557 0 l 339 296 l 235 194 l 235 0 l 104 0 z "},"ķ":{"ha":750,"x_min":104,"x_max":717,"o":"m 104 0 l 104 928 l 235 928 l 235 346 l 543 653 l 703 653 l 431 386 l 717 0 l 557 0 l 339 296 l 235 194 l 235 0 l 104 0 m 331 -361 l 261 -328 q 292 -264 279 -296 q 310 -198 304 -232 q 317 -128 317 -164 l 317 -83 l 438 -83 l 438 -128 q 412 -265 438 -211 q 331 -361 386 -319 z "},"l":{"ha":339,"x_min":104,"x_max":235,"o":"m 104 0 l 104 928 l 235 928 l 235 0 l 104 0 z "},"ĺ":{"ha":339,"x_min":104,"x_max":364,"o":"m 104 0 l 104 928 l 235 928 l 235 0 l 104 0 m 132 1146 l 232 1356 l 364 1356 l 222 1146 l 132 1146 z "},"ľ":{"ha":339,"x_min":104,"x_max":583,"o":"m 104 0 l 104 928 l 235 928 l 235 0 l 104 0 m 417 539 l 451 928 l 585 928 l 510 539 l 417 539 z "},"ļ":{"ha":339,"x_min":56,"x_max":235,"o":"m 104 0 l 104 928 l 235 928 l 235 0 l 104 0 m 125 -361 l 56 -328 q 86 -264 74 -296 q 105 -198 99 -232 q 111 -128 111 -164 l 111 -83 l 232 -83 l 232 -128 q 206 -265 232 -211 q 125 -361 181 -319 z "},"ł":{"ha":351,"x_min":13,"x_max":339,"o":"m 110 0 l 110 397 l 13 360 l 13 442 l 110 479 l 110 928 l 240 928 l 240 529 l 339 568 l 339 486 l 240 449 l 240 0 l 110 0 z "},"m":{"ha":1178,"x_min":104,"x_max":1075,"o":"m 104 0 l 104 653 l 231 653 l 231 567 q 307 640 258 614 q 425 667 356 667 q 545 637 496 667 q 619 554 594 607 q 706 638 650 610 q 838 667 763 667 q 1011 603 947 667 q 1075 403 1075 539 l 1075 0 l 943 0 l 943 386 q 909 513 943 474 q 810 553 875 553 q 694 494 733 553 q 654 335 654 436 l 654 0 l 522 0 l 522 386 q 488 513 522 474 q 390 553 454 553 q 274 494 314 553 q 235 335 235 436 l 235 0 l 104 0 z "},"n":{"ha":792,"x_min":104,"x_max":689,"o":"m 104 0 l 104 653 l 231 653 l 231 556 q 315 637 260 607 q 449 667 369 667 q 625 603 561 667 q 689 403 689 539 l 689 0 l 557 0 l 557 386 q 522 513 557 474 q 414 553 486 553 q 282 494 329 553 q 235 335 235 436 l 235 0 l 104 0 z "},"ń":{"ha":792,"x_min":104,"x_max":689,"o":"m 104 0 l 104 653 l 231 653 l 231 556 q 315 637 260 607 q 449 667 369 667 q 625 603 561 667 q 689 403 689 539 l 689 0 l 557 0 l 557 386 q 522 513 557 474 q 414 553 486 553 q 282 494 329 553 q 235 335 235 436 l 235 0 l 104 0 m 358 757 l 458 967 l 590 967 l 449 757 l 358 757 z "},"ň":{"ha":792,"x_min":104,"x_max":689,"o":"m 104 0 l 104 653 l 231 653 l 231 556 q 315 637 260 607 q 449 667 369 667 q 625 603 561 667 q 689 403 689 539 l 689 0 l 557 0 l 557 386 q 522 513 557 474 q 414 553 486 553 q 282 494 329 553 q 235 335 235 436 l 235 0 l 104 0 m 335 757 l 194 967 l 297 967 l 396 829 l 496 967 l 599 967 l 458 757 l 335 757 z "},"ņ":{"ha":792,"x_min":104,"x_max":689,"o":"m 104 0 l 104 653 l 231 653 l 231 556 q 315 637 260 607 q 449 667 369 667 q 625 603 561 667 q 689 403 689 539 l 689 0 l 557 0 l 557 386 q 522 513 557 474 q 414 553 486 553 q 282 494 329 553 q 235 335 235 436 l 235 0 l 104 0 m 351 -361 l 282 -328 q 313 -264 300 -296 q 331 -198 325 -232 q 338 -128 338 -164 l 338 -83 l 458 -83 l 458 -128 q 433 -265 458 -211 q 351 -361 407 -319 z "},"ñ":{"ha":792,"x_min":104,"x_max":689,"o":"m 104 0 l 104 653 l 231 653 l 231 556 q 315 637 260 607 q 449 667 369 667 q 625 603 561 667 q 689 403 689 539 l 689 0 l 557 0 l 557 386 q 522 513 557 474 q 414 553 486 553 q 282 494 329 553 q 235 335 235 436 l 235 0 l 104 0 m 181 774 q 194 872 181 833 q 235 931 207 911 q 304 951 263 951 q 360 938 335 951 q 408 906 386 924 q 449 874 429 888 q 486 860 469 860 q 519 880 507 860 q 533 951 531 900 l 613 951 q 599 853 613 893 q 558 794 585 814 q 488 774 531 774 q 433 788 458 774 q 385 819 407 801 q 343 850 363 836 q 306 864 324 864 q 274 844 286 864 q 260 774 263 825 l 181 774 z "},"ŋ":{"ha":778,"x_min":104,"x_max":689,"o":"m 486 -261 q 440 -258 463 -261 q 399 -250 417 -256 l 399 -144 q 428 -147 413 -146 q 460 -149 444 -149 q 533 -125 508 -149 q 557 -53 557 -101 l 557 386 q 522 513 557 474 q 414 553 486 553 q 282 494 329 553 q 235 335 235 436 l 235 0 l 104 0 l 104 653 l 231 653 l 231 556 q 315 637 260 607 q 449 667 369 667 q 625 603 561 667 q 689 403 689 539 l 688 -64 q 638 -213 688 -165 q 486 -261 589 -261 z "},"o":{"ha":819,"x_min":68,"x_max":753,"o":"m 410 -14 q 232 28 310 -14 q 111 147 154 71 q 68 326 68 224 q 111 506 68 429 q 232 624 154 582 q 410 667 310 667 q 588 624 511 667 q 709 506 665 582 q 753 326 753 429 q 709 147 753 224 q 588 28 665 71 q 410 -14 511 -14 m 410 101 q 519 128 472 101 q 592 206 567 156 q 618 326 618 257 q 592 447 618 396 q 519 525 567 497 q 410 553 472 553 q 301 525 347 553 q 228 447 254 497 q 201 326 201 396 q 228 206 201 257 q 301 128 254 156 q 410 101 347 101 z "},"ó":{"ha":819,"x_min":68,"x_max":753,"o":"m 410 -14 q 232 28 310 -14 q 111 147 154 71 q 68 326 68 224 q 111 506 68 429 q 232 624 154 582 q 410 667 310 667 q 588 624 511 667 q 709 506 665 582 q 753 326 753 429 q 709 147 753 224 q 588 28 665 71 q 410 -14 511 -14 m 410 101 q 519 128 472 101 q 592 206 567 156 q 618 326 618 257 q 592 447 618 396 q 519 525 567 497 q 410 553 472 553 q 301 525 347 553 q 228 447 254 497 q 201 326 201 396 q 228 206 201 257 q 301 128 254 156 q 410 101 347 101 m 372 757 l 472 967 l 604 967 l 463 757 l 372 757 z "},"ô":{"ha":819,"x_min":68,"x_max":753,"o":"m 410 -14 q 232 28 310 -14 q 111 147 154 71 q 68 326 68 224 q 111 506 68 429 q 232 624 154 582 q 410 667 310 667 q 588 624 511 667 q 709 506 665 582 q 753 326 753 429 q 709 147 753 224 q 588 28 665 71 q 410 -14 511 -14 m 410 101 q 519 128 472 101 q 592 206 567 156 q 618 326 618 257 q 592 447 618 396 q 519 525 567 497 q 410 553 472 553 q 301 525 347 553 q 228 447 254 497 q 201 326 201 396 q 228 206 201 257 q 301 128 254 156 q 410 101 347 101 m 208 757 l 349 967 l 472 967 l 613 757 l 510 757 l 410 896 l 311 757 l 208 757 z "},"ö":{"ha":819,"x_min":68,"x_max":753,"o":"m 410 -14 q 232 28 310 -14 q 111 147 154 71 q 68 326 68 224 q 111 506 68 429 q 232 624 154 582 q 410 667 310 667 q 588 624 511 667 q 709 506 665 582 q 753 326 753 429 q 709 147 753 224 q 588 28 665 71 q 410 -14 511 -14 m 410 101 q 519 128 472 101 q 592 206 567 156 q 618 326 618 257 q 592 447 618 396 q 519 525 567 497 q 410 553 472 553 q 301 525 347 553 q 228 447 254 497 q 201 326 201 396 q 228 206 201 257 q 301 128 254 156 q 410 101 347 101 m 543 794 q 491 814 510 794 q 472 863 472 833 q 491 910 472 892 q 543 929 510 929 q 594 910 575 929 q 614 863 614 892 q 594 814 614 833 q 543 794 575 794 m 278 794 q 226 814 244 794 q 207 863 207 833 q 226 910 207 892 q 278 929 244 929 q 329 910 310 929 q 349 863 349 892 q 329 814 349 833 q 278 794 310 794 z "},"ò":{"ha":819,"x_min":68,"x_max":753,"o":"m 410 -14 q 232 28 310 -14 q 111 147 154 71 q 68 326 68 224 q 111 506 68 429 q 232 624 154 582 q 410 667 310 667 q 588 624 511 667 q 709 506 665 582 q 753 326 753 429 q 709 147 753 224 q 588 28 665 71 q 410 -14 511 -14 m 410 101 q 519 128 472 101 q 592 206 567 156 q 618 326 618 257 q 592 447 618 396 q 519 525 567 497 q 410 553 472 553 q 301 525 347 553 q 228 447 254 497 q 201 326 201 396 q 228 206 201 257 q 301 128 254 156 q 410 101 347 101 m 372 757 l 231 967 l 363 967 l 463 757 l 372 757 z "},"ő":{"ha":819,"x_min":68,"x_max":753,"o":"m 410 -14 q 232 28 310 -14 q 111 147 154 71 q 68 326 68 224 q 111 506 68 429 q 232 624 154 582 q 410 667 310 667 q 588 624 511 667 q 709 506 665 582 q 753 326 753 429 q 709 147 753 224 q 588 28 665 71 q 410 -14 511 -14 m 410 101 q 519 128 472 101 q 592 206 567 156 q 618 326 618 257 q 592 447 618 396 q 519 525 567 497 q 410 553 472 553 q 301 525 347 553 q 228 447 254 497 q 201 326 201 396 q 228 206 201 257 q 301 128 254 156 q 410 101 347 101 m 465 757 l 565 967 l 697 967 l 556 757 l 465 757 m 233 757 l 333 967 l 467 967 l 325 757 l 233 757 z "},"ō":{"ha":819,"x_min":68,"x_max":753,"o":"m 410 -14 q 232 28 310 -14 q 111 147 154 71 q 68 326 68 224 q 111 506 68 429 q 232 624 154 582 q 410 667 310 667 q 588 624 511 667 q 709 506 665 582 q 753 326 753 429 q 709 147 753 224 q 588 28 665 71 q 410 -14 511 -14 m 410 101 q 519 128 472 101 q 592 206 567 156 q 618 326 618 257 q 592 447 618 396 q 519 525 567 497 q 410 553 472 553 q 301 525 347 553 q 228 447 254 497 q 201 326 201 396 q 228 206 201 257 q 301 128 254 156 q 410 101 347 101 m 222 818 l 222 907 l 599 907 l 599 818 l 222 818 z "},"ø":{"ha":819,"x_min":68,"x_max":753,"o":"m 119 -14 l 68 38 l 701 667 l 753 617 l 119 -14 m 410 -14 q 232 28 310 -14 q 111 147 154 71 q 68 326 68 224 q 111 506 68 429 q 232 624 154 582 q 410 667 310 667 q 588 624 511 667 q 709 506 665 582 q 753 326 753 429 q 709 147 753 224 q 588 28 665 71 q 410 -14 511 -14 m 410 101 q 519 128 472 101 q 592 206 567 156 q 618 326 618 257 q 592 447 618 396 q 519 525 567 497 q 410 553 472 553 q 301 525 347 553 q 228 447 254 497 q 201 326 201 396 q 228 206 201 257 q 301 128 254 156 q 410 101 347 101 z "},"õ":{"ha":819,"x_min":68,"x_max":753,"o":"m 410 -14 q 232 28 310 -14 q 111 147 154 71 q 68 326 68 224 q 111 506 68 429 q 232 624 154 582 q 410 667 310 667 q 588 624 511 667 q 709 506 665 582 q 753 326 753 429 q 709 147 753 224 q 588 28 665 71 q 410 -14 511 -14 m 410 101 q 519 128 472 101 q 592 206 567 156 q 618 326 618 257 q 592 447 618 396 q 519 525 567 497 q 410 553 472 553 q 301 525 347 553 q 228 447 254 497 q 201 326 201 396 q 228 206 201 257 q 301 128 254 156 q 410 101 347 101 m 194 774 q 208 872 194 833 q 249 931 221 911 q 318 951 276 951 q 374 938 349 951 q 422 906 400 924 q 463 874 443 888 q 500 860 483 860 q 533 880 521 860 q 547 951 544 900 l 626 951 q 613 853 626 893 q 572 794 599 814 q 501 774 544 774 q 447 788 472 774 q 399 819 421 801 q 357 850 376 836 q 319 864 338 864 q 288 844 300 864 q 274 774 276 825 l 194 774 z "},"œ":{"ha":1328,"x_min":67,"x_max":1260,"o":"m 408 -14 q 231 28 308 -14 q 110 147 153 71 q 67 326 67 224 q 110 506 67 429 q 231 624 153 582 q 408 667 308 667 q 569 630 499 667 q 683 526 640 593 q 793 630 725 593 q 946 667 861 667 q 1113 630 1042 667 q 1222 529 1183 593 q 1260 385 1260 465 q 1253 333 1260 361 q 1238 289 1247 306 l 751 289 q 787 185 758 228 q 864 120 815 142 q 976 99 913 99 q 1090 118 1040 99 q 1185 174 1139 138 l 1232 76 q 1110 9 1178 32 q 965 -14 1043 -14 q 801 22 875 -14 q 683 126 728 57 q 569 23 640 60 q 408 -14 499 -14 m 408 101 q 518 128 471 101 q 591 206 565 156 q 617 326 617 257 q 591 447 617 396 q 518 525 565 497 q 408 553 471 553 q 299 525 346 553 q 227 447 253 497 q 201 326 201 396 q 227 206 201 257 q 299 128 253 156 q 408 101 346 101 m 751 390 l 1124 390 q 1126 397 1125 393 q 1126 404 1126 400 q 1107 484 1126 450 q 1049 538 1088 518 q 949 557 1010 557 q 861 537 903 557 q 791 480 819 517 q 751 390 763 443 z "},"p":{"ha":842,"x_min":104,"x_max":774,"o":"m 104 -253 l 104 653 l 231 653 l 231 550 q 321 635 261 603 q 461 667 381 667 q 622 626 551 667 q 733 508 693 585 q 774 326 774 432 q 733 146 774 222 q 622 28 693 69 q 461 -14 551 -14 q 325 16 383 -14 q 235 96 267 46 l 235 -253 l 104 -253 m 435 101 q 540 128 494 101 q 613 206 586 156 q 639 326 639 257 q 613 447 639 396 q 541 525 588 497 q 435 553 494 553 q 328 525 375 553 q 256 447 282 497 q 231 326 231 396 q 256 206 231 257 q 328 128 282 156 q 435 101 375 101 z "},"þ":{"ha":842,"x_min":104,"x_max":774,"o":"m 104 -253 l 104 928 l 235 928 l 235 558 q 325 637 267 607 q 461 667 383 667 q 622 626 551 667 q 733 508 693 585 q 774 326 774 432 q 733 146 774 222 q 622 28 693 69 q 461 -14 551 -14 q 325 15 383 -14 q 235 94 267 44 l 235 -253 l 104 -253 m 435 101 q 540 128 494 101 q 613 206 586 156 q 639 326 639 257 q 613 447 639 396 q 541 525 588 497 q 435 553 494 553 q 328 525 375 553 q 256 447 282 497 q 231 326 231 396 q 256 206 231 257 q 328 128 282 156 q 435 101 375 101 z "},"q":{"ha":842,"x_min":68,"x_max":739,"o":"m 607 -253 l 607 96 q 517 16 575 46 q 381 -14 458 -14 q 221 28 292 -14 q 109 146 150 69 q 68 326 68 222 q 109 508 68 432 q 221 626 150 585 q 381 667 292 667 q 522 635 463 667 q 613 550 582 603 l 613 653 l 739 653 l 739 -253 l 607 -253 m 408 101 q 514 128 468 101 q 586 206 560 156 q 613 326 613 257 q 586 447 613 396 q 514 525 560 497 q 408 553 468 553 q 302 525 349 553 q 229 447 256 497 q 203 326 203 396 q 229 206 203 257 q 301 128 256 156 q 408 101 347 101 z "},"r":{"ha":517,"x_min":104,"x_max":472,"o":"m 104 0 l 104 653 l 231 653 l 231 539 q 303 631 256 600 q 411 661 351 661 q 447 659 431 661 q 472 653 463 657 l 472 529 q 434 535 453 533 q 397 538 415 538 q 281 480 328 538 q 235 315 235 422 l 235 0 l 104 0 z "},"ŕ":{"ha":517,"x_min":104,"x_max":472,"o":"m 104 0 l 104 653 l 231 653 l 231 539 q 303 631 256 600 q 411 661 351 661 q 447 659 431 661 q 472 653 463 657 l 472 529 q 434 535 453 533 q 397 538 415 538 q 281 480 328 538 q 235 315 235 422 l 235 0 l 104 0 m 221 757 l 321 967 l 453 967 l 311 757 l 221 757 z "},"ř":{"ha":517,"x_min":57,"x_max":472,"o":"m 104 0 l 104 653 l 231 653 l 231 539 q 303 631 256 600 q 411 661 351 661 q 447 659 431 661 q 472 653 463 657 l 472 529 q 434 535 453 533 q 397 538 415 538 q 281 480 328 538 q 235 315 235 422 l 235 0 l 104 0 m 197 757 l 57 967 l 160 967 l 258 829 l 358 967 l 461 967 l 321 757 l 197 757 z "},"ŗ":{"ha":517,"x_min":51,"x_max":472,"o":"m 104 0 l 104 653 l 231 653 l 231 539 q 303 631 256 600 q 411 661 351 661 q 447 659 431 661 q 472 653 463 657 l 472 529 q 434 535 453 533 q 397 538 415 538 q 281 480 328 538 q 235 315 235 422 l 235 0 l 104 0 m 122 -361 l 53 -328 q 83 -264 71 -296 q 102 -198 96 -232 q 108 -128 108 -164 l 108 -83 l 229 -83 l 229 -128 q 203 -265 229 -211 q 122 -361 178 -319 z "},"s":{"ha":681,"x_min":68,"x_max":614,"o":"m 335 -14 q 194 9 260 -14 q 68 75 129 32 l 122 178 q 235 117 183 138 q 338 96 288 96 q 444 117 408 96 q 479 182 479 139 q 458 235 479 218 q 382 263 436 253 l 271 283 q 135 344 181 300 q 89 457 89 388 q 117 562 89 514 q 203 638 146 610 q 346 667 260 667 q 480 646 417 667 q 593 589 543 625 l 540 490 q 449 538 497 519 q 351 557 401 557 q 257 537 292 557 q 222 472 222 517 q 243 428 222 444 q 314 403 264 411 l 424 382 q 565 321 515 364 q 614 196 614 278 q 543 45 614 104 q 335 -14 472 -14 z "},"ś":{"ha":681,"x_min":68,"x_max":614,"o":"m 335 -14 q 194 9 260 -14 q 68 75 129 32 l 122 178 q 235 117 183 138 q 338 96 288 96 q 444 117 408 96 q 479 182 479 139 q 458 235 479 218 q 382 263 436 253 l 271 283 q 135 344 181 300 q 89 457 89 388 q 117 562 89 514 q 203 638 146 610 q 346 667 260 667 q 480 646 417 667 q 593 589 543 625 l 540 490 q 449 538 497 519 q 351 557 401 557 q 257 537 292 557 q 222 472 222 517 q 243 428 222 444 q 314 403 264 411 l 424 382 q 565 321 515 364 q 614 196 614 278 q 543 45 614 104 q 335 -14 472 -14 m 303 757 l 403 967 l 535 967 l 393 757 l 303 757 z "},"š":{"ha":681,"x_min":68,"x_max":614,"o":"m 335 -14 q 194 9 260 -14 q 68 75 129 32 l 122 178 q 235 117 183 138 q 338 96 288 96 q 444 117 408 96 q 479 182 479 139 q 458 235 479 218 q 382 263 436 253 l 271 283 q 135 344 181 300 q 89 457 89 388 q 117 562 89 514 q 203 638 146 610 q 346 667 260 667 q 480 646 417 667 q 593 589 543 625 l 540 490 q 449 538 497 519 q 351 557 401 557 q 257 537 292 557 q 222 472 222 517 q 243 428 222 444 q 314 403 264 411 l 424 382 q 565 321 515 364 q 614 196 614 278 q 543 45 614 104 q 335 -14 472 -14 m 279 757 l 139 967 l 242 967 l 340 829 l 440 967 l 543 967 l 403 757 l 279 757 z "},"ş":{"ha":681,"x_min":68,"x_max":614,"o":"m 335 -14 q 194 9 260 -14 q 68 75 129 32 l 122 178 q 235 117 183 138 q 338 96 288 96 q 444 117 408 96 q 479 182 479 139 q 458 235 479 218 q 382 263 436 253 l 271 283 q 135 344 181 300 q 89 457 89 388 q 117 562 89 514 q 203 638 146 610 q 346 667 260 667 q 480 646 417 667 q 593 589 543 625 l 540 490 q 449 538 497 519 q 351 557 401 557 q 257 537 292 557 q 222 472 222 517 q 243 428 222 444 q 314 403 264 411 l 424 382 q 565 321 515 364 q 614 196 614 278 q 543 45 614 104 q 335 -14 472 -14 m 315 -265 q 269 -262 296 -265 q 218 -253 242 -260 l 218 -185 q 264 -192 238 -190 q 308 -194 290 -194 q 360 -183 343 -194 q 376 -146 376 -171 q 360 -112 376 -124 q 308 -100 343 -100 l 276 -100 l 276 -64 l 313 15 l 382 15 l 346 -64 q 433 -88 401 -64 q 464 -156 464 -112 q 426 -235 464 -206 q 315 -265 388 -265 z "},"ș":{"ha":681,"x_min":68,"x_max":614,"o":"m 335 -14 q 194 9 260 -14 q 68 75 129 32 l 122 178 q 235 117 183 138 q 338 96 288 96 q 444 117 408 96 q 479 182 479 139 q 458 235 479 218 q 382 263 436 253 l 271 283 q 135 344 181 300 q 89 457 89 388 q 117 562 89 514 q 203 638 146 610 q 346 667 260 667 q 480 646 417 667 q 593 589 543 625 l 540 490 q 449 538 497 519 q 351 557 401 557 q 257 537 292 557 q 222 472 222 517 q 243 428 222 444 q 314 403 264 411 l 424 382 q 565 321 515 364 q 614 196 614 278 q 543 45 614 104 q 335 -14 472 -14 m 296 -361 l 226 -328 q 257 -264 244 -296 q 276 -198 269 -232 q 282 -128 282 -164 l 282 -83 l 403 -83 l 403 -128 q 377 -265 403 -211 q 296 -361 351 -319 z "},"ß":{"ha":842,"x_min":104,"x_max":774,"o":"m 510 -14 q 457 -10 483 -14 q 410 0 431 -6 l 410 107 q 442 101 424 104 q 479 97 461 97 q 599 142 558 97 q 639 268 639 188 q 578 397 639 358 q 410 435 518 435 l 410 533 q 534 571 486 533 q 582 683 582 608 q 535 794 582 757 q 410 831 489 831 q 282 780 329 831 q 235 632 235 729 l 235 0 l 104 0 l 104 610 q 139 787 104 713 q 242 901 174 861 q 410 942 310 942 q 633 879 550 942 q 715 700 715 817 q 678 570 715 622 q 576 492 642 518 q 724 409 675 469 q 774 253 774 349 q 744 116 774 176 q 657 21 715 56 q 510 -14 599 -14 z "},"t":{"ha":532,"x_min":33,"x_max":476,"o":"m 378 -8 q 226 40 275 -8 q 176 189 176 88 l 176 542 l 33 542 l 33 653 l 176 653 l 176 839 l 307 839 l 307 653 l 476 653 l 476 542 l 307 542 l 307 200 q 331 128 307 151 q 404 104 354 104 q 442 106 421 104 q 476 110 464 107 l 476 4 q 432 -5 460 -1 q 378 -8 404 -8 z "},"ť":{"ha":532,"x_min":33,"x_max":549,"o":"m 378 -8 q 226 40 275 -8 q 176 189 176 88 l 176 542 l 33 542 l 33 653 l 176 653 l 176 839 l 307 839 l 307 653 l 476 653 l 476 542 l 307 542 l 307 200 q 331 128 307 151 q 404 104 354 104 q 442 106 421 104 q 476 110 464 107 l 476 4 q 432 -5 460 -1 q 378 -8 404 -8 m 382 739 l 417 1128 l 550 1128 l 475 739 l 382 739 z "},"ț":{"ha":532,"x_min":33,"x_max":476,"o":"m 378 -8 q 226 40 275 -8 q 176 189 176 88 l 176 542 l 33 542 l 33 653 l 176 653 l 176 839 l 307 839 l 307 653 l 476 653 l 476 542 l 307 542 l 307 200 q 331 128 307 151 q 404 104 354 104 q 442 106 421 104 q 476 110 464 107 l 476 4 q 432 -5 460 -1 q 378 -8 404 -8 m 278 -361 l 208 -328 q 239 -264 226 -296 q 258 -198 251 -232 q 264 -128 264 -164 l 264 -83 l 385 -83 l 385 -128 q 359 -265 385 -211 q 278 -361 333 -319 z "},"u":{"ha":792,"x_min":104,"x_max":689,"o":"m 343 -14 q 167 50 231 -14 q 104 250 104 114 l 104 653 l 235 653 l 235 267 q 270 141 235 181 q 379 101 306 101 q 510 159 464 101 q 557 318 557 217 l 557 653 l 689 653 l 689 0 l 563 0 l 563 97 q 478 16 533 46 q 343 -14 422 -14 z "},"ú":{"ha":792,"x_min":104,"x_max":689,"o":"m 343 -14 q 167 50 231 -14 q 104 250 104 114 l 104 653 l 235 653 l 235 267 q 270 141 235 181 q 379 101 306 101 q 510 159 464 101 q 557 318 557 217 l 557 653 l 689 653 l 689 0 l 563 0 l 563 97 q 478 16 533 46 q 343 -14 422 -14 m 358 757 l 458 967 l 590 967 l 449 757 l 358 757 z "},"ŭ":{"ha":792,"x_min":104,"x_max":689,"o":"m 343 -14 q 167 50 231 -14 q 104 250 104 114 l 104 653 l 235 653 l 235 267 q 270 141 235 181 q 379 101 306 101 q 510 159 464 101 q 557 318 557 217 l 557 653 l 689 653 l 689 0 l 563 0 l 563 97 q 478 16 533 46 q 343 -14 422 -14 m 396 743 q 254 794 300 743 q 208 925 208 844 l 208 967 l 294 967 l 294 925 q 320 856 294 882 q 396 831 346 831 q 472 856 446 831 q 497 925 497 882 l 497 967 l 585 967 l 585 925 q 538 794 585 844 q 396 743 492 743 z "},"û":{"ha":792,"x_min":104,"x_max":689,"o":"m 343 -14 q 167 50 231 -14 q 104 250 104 114 l 104 653 l 235 653 l 235 267 q 270 141 235 181 q 379 101 306 101 q 510 159 464 101 q 557 318 557 217 l 557 653 l 689 653 l 689 0 l 563 0 l 563 97 q 478 16 533 46 q 343 -14 422 -14 m 194 757 l 335 967 l 458 967 l 599 757 l 496 757 l 396 896 l 297 757 l 194 757 z "},"ü":{"ha":792,"x_min":104,"x_max":689,"o":"m 343 -14 q 167 50 231 -14 q 104 250 104 114 l 104 653 l 235 653 l 235 267 q 270 141 235 181 q 379 101 306 101 q 510 159 464 101 q 557 318 557 217 l 557 653 l 689 653 l 689 0 l 563 0 l 563 97 q 478 16 533 46 q 343 -14 422 -14 m 529 794 q 477 814 496 794 q 458 863 458 833 q 477 910 458 892 q 529 929 496 929 q 581 910 561 929 q 600 863 600 892 q 581 814 600 833 q 529 794 561 794 m 264 794 q 212 814 231 794 q 193 863 193 833 q 212 910 193 892 q 264 929 231 929 q 315 910 296 929 q 335 863 335 892 q 315 814 335 833 q 264 794 296 794 z "},"ù":{"ha":792,"x_min":104,"x_max":689,"o":"m 343 -14 q 167 50 231 -14 q 104 250 104 114 l 104 653 l 235 653 l 235 267 q 270 141 235 181 q 379 101 306 101 q 510 159 464 101 q 557 318 557 217 l 557 653 l 689 653 l 689 0 l 563 0 l 563 97 q 478 16 533 46 q 343 -14 422 -14 m 358 757 l 217 967 l 349 967 l 449 757 l 358 757 z "},"ű":{"ha":792,"x_min":104,"x_max":689,"o":"m 343 -14 q 167 50 231 -14 q 104 250 104 114 l 104 653 l 235 653 l 235 267 q 270 141 235 181 q 379 101 306 101 q 510 159 464 101 q 557 318 557 217 l 557 653 l 689 653 l 689 0 l 563 0 l 563 97 q 478 16 533 46 q 343 -14 422 -14 m 451 757 l 551 967 l 683 967 l 542 757 l 451 757 m 219 757 l 319 967 l 453 967 l 311 757 l 219 757 z "},"ū":{"ha":792,"x_min":104,"x_max":689,"o":"m 343 -14 q 167 50 231 -14 q 104 250 104 114 l 104 653 l 235 653 l 235 267 q 270 141 235 181 q 379 101 306 101 q 510 159 464 101 q 557 318 557 217 l 557 653 l 689 653 l 689 0 l 563 0 l 563 97 q 478 16 533 46 q 343 -14 422 -14 m 208 818 l 208 907 l 585 907 l 585 818 l 208 818 z "},"ų":{"ha":792,"x_min":104,"x_max":689,"o":"m 343 -14 q 167 50 231 -14 q 104 250 104 114 l 104 653 l 235 653 l 235 267 q 270 141 235 181 q 379 101 306 101 q 510 159 464 101 q 557 318 557 217 l 557 653 l 689 653 l 689 0 l 563 0 l 563 97 q 478 16 533 46 q 343 -14 422 -14 m 593 -265 q 493 -240 526 -265 q 460 -161 460 -214 q 500 -69 460 -111 q 603 0 540 -28 l 689 0 q 587 -71 626 -29 q 547 -146 547 -112 q 601 -187 547 -187 q 643 -185 619 -187 q 689 -179 667 -183 l 689 -253 q 638 -262 664 -260 q 593 -265 613 -265 z "},"ů":{"ha":792,"x_min":104,"x_max":689,"o":"m 343 -14 q 167 50 231 -14 q 104 250 104 114 l 104 653 l 235 653 l 235 267 q 270 141 235 181 q 379 101 306 101 q 510 159 464 101 q 557 318 557 217 l 557 653 l 689 653 l 689 0 l 563 0 l 563 97 q 478 16 533 46 q 343 -14 422 -14 m 396 715 q 281 757 324 715 q 238 863 238 799 q 281 967 238 926 q 396 1008 324 1008 q 512 967 468 1008 q 556 863 556 926 q 512 757 556 799 q 396 715 468 715 m 396 776 q 460 800 436 776 q 483 863 483 824 q 460 924 483 900 q 396 947 436 947 q 333 924 357 947 q 308 863 308 900 q 332 800 308 824 q 396 776 356 776 z "},"v":{"ha":738,"x_min":35,"x_max":703,"o":"m 296 0 l 35 653 l 175 653 l 368 136 l 561 653 l 703 653 l 440 0 l 296 0 z "},"w":{"ha":1113,"x_min":35,"x_max":1078,"o":"m 264 0 l 35 653 l 175 653 l 331 164 l 494 653 l 617 653 l 779 164 l 936 653 l 1078 653 l 847 0 l 718 0 l 556 486 l 393 0 l 264 0 z "},"ẃ":{"ha":1113,"x_min":35,"x_max":1078,"o":"m 264 0 l 35 653 l 175 653 l 331 164 l 494 653 l 617 653 l 779 164 l 936 653 l 1078 653 l 847 0 l 718 0 l 556 486 l 393 0 l 264 0 m 519 757 l 619 967 l 751 967 l 610 757 l 519 757 z "},"ŵ":{"ha":1113,"x_min":35,"x_max":1078,"o":"m 264 0 l 35 653 l 175 653 l 331 164 l 494 653 l 617 653 l 779 164 l 936 653 l 1078 653 l 847 0 l 718 0 l 556 486 l 393 0 l 264 0 m 356 757 l 496 967 l 619 967 l 760 757 l 657 757 l 557 896 l 458 757 l 356 757 z "},"ẅ":{"ha":1113,"x_min":35,"x_max":1078,"o":"m 264 0 l 35 653 l 175 653 l 331 164 l 494 653 l 617 653 l 779 164 l 936 653 l 1078 653 l 847 0 l 718 0 l 556 486 l 393 0 l 264 0 m 690 794 q 638 814 657 794 q 619 863 619 833 q 638 910 619 892 q 690 929 657 929 q 742 910 722 929 q 761 863 761 892 q 742 814 761 833 q 690 794 722 794 m 425 794 q 373 814 392 794 q 354 863 354 833 q 373 910 354 892 q 425 929 392 929 q 476 910 457 929 q 496 863 496 892 q 476 814 496 833 q 425 794 457 794 z "},"ẁ":{"ha":1113,"x_min":35,"x_max":1078,"o":"m 264 0 l 35 653 l 175 653 l 331 164 l 494 653 l 617 653 l 779 164 l 936 653 l 1078 653 l 847 0 l 718 0 l 556 486 l 393 0 l 264 0 m 519 757 l 378 967 l 510 967 l 610 757 l 519 757 z "},"x":{"ha":738,"x_min":35,"x_max":703,"o":"m 35 0 l 285 338 l 49 653 l 200 653 l 368 418 l 538 653 l 689 653 l 453 338 l 703 0 l 551 0 l 368 249 l 186 0 l 35 0 z "},"y":{"ha":738,"x_min":3,"x_max":703,"o":"m 160 -261 q 76 -251 118 -261 q 3 -222 35 -240 l 40 -119 q 97 -141 69 -133 q 150 -149 125 -149 q 207 -137 181 -149 q 258 -97 233 -125 q 306 -24 282 -69 l 35 653 l 175 653 l 368 131 l 561 653 l 703 653 l 440 0 q 355 -158 400 -101 q 261 -238 310 -215 q 160 -261 213 -261 z "},"ý":{"ha":738,"x_min":3,"x_max":703,"o":"m 160 -261 q 76 -251 118 -261 q 3 -222 35 -240 l 40 -119 q 97 -141 69 -133 q 150 -149 125 -149 q 207 -137 181 -149 q 258 -97 233 -125 q 306 -24 282 -69 l 35 653 l 175 653 l 368 131 l 561 653 l 703 653 l 440 0 q 355 -158 400 -101 q 261 -238 310 -215 q 160 -261 213 -261 m 332 757 l 432 967 l 564 967 l 422 757 l 332 757 z "},"ŷ":{"ha":738,"x_min":3,"x_max":703,"o":"m 160 -261 q 76 -251 118 -261 q 3 -222 35 -240 l 40 -119 q 97 -141 69 -133 q 150 -149 125 -149 q 207 -137 181 -149 q 258 -97 233 -125 q 306 -24 282 -69 l 35 653 l 175 653 l 368 131 l 561 653 l 703 653 l 440 0 q 355 -158 400 -101 q 261 -238 310 -215 q 160 -261 213 -261 m 168 757 l 308 967 l 432 967 l 572 757 l 469 757 l 369 896 l 271 757 l 168 757 z "},"ÿ":{"ha":738,"x_min":3,"x_max":703,"o":"m 160 -261 q 76 -251 118 -261 q 3 -222 35 -240 l 40 -119 q 97 -141 69 -133 q 150 -149 125 -149 q 207 -137 181 -149 q 258 -97 233 -125 q 306 -24 282 -69 l 35 653 l 175 653 l 368 131 l 561 653 l 703 653 l 440 0 q 355 -158 400 -101 q 261 -238 310 -215 q 160 -261 213 -261 m 503 794 q 451 814 469 794 q 432 863 432 833 q 451 910 432 892 q 503 929 469 929 q 554 910 535 929 q 574 863 574 892 q 554 814 574 833 q 503 794 535 794 m 238 794 q 185 814 204 794 q 167 863 167 833 q 185 910 167 892 q 238 929 204 929 q 289 910 269 929 q 308 863 308 892 q 289 814 308 833 q 238 794 269 794 z "},"ỳ":{"ha":738,"x_min":3,"x_max":703,"o":"m 160 -261 q 76 -251 118 -261 q 3 -222 35 -240 l 40 -119 q 97 -141 69 -133 q 150 -149 125 -149 q 207 -137 181 -149 q 258 -97 233 -125 q 306 -24 282 -69 l 35 653 l 175 653 l 368 131 l 561 653 l 703 653 l 440 0 q 355 -158 400 -101 q 261 -238 310 -215 q 160 -261 213 -261 m 332 757 l 190 967 l 322 967 l 422 757 l 332 757 z "},"z":{"ha":647,"x_min":57,"x_max":590,"o":"m 57 0 l 57 99 l 419 542 l 71 542 l 71 653 l 576 653 l 576 554 l 214 113 l 590 113 l 590 0 l 57 0 z "},"ź":{"ha":647,"x_min":57,"x_max":590,"o":"m 57 0 l 57 99 l 419 542 l 71 542 l 71 653 l 576 653 l 576 554 l 214 113 l 590 113 l 590 0 l 57 0 m 286 757 l 386 967 l 518 967 l 376 757 l 286 757 z "},"ž":{"ha":647,"x_min":57,"x_max":590,"o":"m 57 0 l 57 99 l 419 542 l 71 542 l 71 653 l 576 653 l 576 554 l 214 113 l 590 113 l 590 0 l 57 0 m 263 757 l 122 967 l 225 967 l 324 829 l 424 967 l 526 967 l 386 757 l 263 757 z "},"ż":{"ha":647,"x_min":57,"x_max":590,"o":"m 57 0 l 57 99 l 419 542 l 71 542 l 71 653 l 576 653 l 576 554 l 214 113 l 590 113 l 590 0 l 57 0 m 324 794 q 272 814 292 794 q 253 863 253 833 q 272 910 253 892 q 324 929 292 929 q 375 910 356 929 q 394 863 394 892 q 375 814 394 833 q 324 794 356 794 z "},"ﬁ":{"ha":849,"x_min":33,"x_max":758,"o":"m 176 0 l 176 542 l 33 542 l 33 653 l 176 653 l 176 739 q 226 888 176 840 q 378 936 275 936 q 432 933 404 936 q 476 925 460 931 l 476 819 q 442 824 464 822 q 404 825 421 825 q 331 801 354 825 q 307 729 307 776 l 307 653 l 476 653 l 476 542 l 307 542 l 307 0 l 176 0 m 613 0 l 613 653 l 744 653 l 744 0 l 613 0 m 679 788 q 621 808 643 788 q 599 863 599 829 q 621 917 599 896 q 679 938 643 938 q 737 917 715 938 q 758 863 758 896 q 737 808 758 829 q 679 788 715 788 z "},"ﬂ":{"ha":849,"x_min":33,"x_max":744,"o":"m 176 0 l 176 542 l 33 542 l 33 653 l 176 653 l 176 739 q 226 888 176 840 q 378 936 275 936 q 432 933 404 936 q 476 925 460 931 l 476 819 q 442 824 464 822 q 404 825 421 825 q 331 801 354 825 q 307 729 307 776 l 307 653 l 476 653 l 476 542 l 307 542 l 307 0 l 176 0 m 613 0 l 613 928 l 744 928 l 744 0 l 613 0 z "},"ª":{"ha":719,"x_min":68,"x_max":617,"o":"m 288 322 q 173 343 222 322 q 96 403 124 364 q 68 499 68 443 q 96 592 68 556 q 173 650 124 629 q 288 679 222 671 l 494 704 q 444 803 486 772 q 339 835 403 835 q 251 817 296 835 q 154 765 207 800 l 111 854 q 219 915 160 893 q 342 936 278 936 q 547 876 476 936 q 617 693 617 815 l 617 335 l 501 335 l 501 421 q 413 347 467 371 q 288 322 358 322 m 314 422 q 413 446 372 422 q 475 508 454 469 q 496 589 496 546 l 496 615 l 321 593 q 224 563 256 585 q 192 506 192 540 q 224 443 192 464 q 314 422 256 422 z "},"º":{"ha":754,"x_min":68,"x_max":686,"o":"m 378 322 q 217 360 288 322 q 107 468 146 399 q 68 629 68 538 q 107 791 68 722 q 217 898 146 860 q 378 936 288 936 q 538 898 469 936 q 647 791 607 860 q 686 629 686 722 q 647 468 686 538 q 538 360 607 399 q 378 322 469 322 m 378 428 q 512 482 461 428 q 563 629 563 536 q 512 777 563 724 q 378 831 461 831 q 243 776 294 831 q 192 629 192 722 q 243 482 192 536 q 378 428 294 428 z "},"π":{"ha":935,"x_min":33,"x_max":903,"o":"m 176 0 l 176 543 l 33 543 l 33 653 l 903 653 l 903 543 l 761 543 l 761 0 l 629 0 l 629 543 l 307 543 l 307 0 l 176 0 z "},"¹":{"ha":406,"x_min":40,"x_max":294,"o":"m 190 567 l 190 997 l 81 939 l 40 1021 l 218 1114 l 294 1114 l 294 567 l 190 567 z "},"²":{"ha":510,"x_min":68,"x_max":443,"o":"m 68 567 l 68 654 l 279 849 q 317 892 306 871 q 328 940 328 914 q 301 1009 328 982 q 232 1036 274 1036 q 173 1020 201 1036 q 106 976 144 1004 l 68 1050 q 153 1104 110 1086 q 244 1122 197 1122 q 381 1076 328 1122 q 435 947 435 1029 q 418 879 435 914 q 351 799 401 844 l 199 654 l 443 654 l 443 567 l 68 567 z "},"³":{"ha":528,"x_min":68,"x_max":461,"o":"m 257 558 q 155 576 200 558 q 68 632 110 594 l 107 706 q 181 660 149 674 q 250 646 213 646 q 328 669 303 646 q 354 728 354 692 q 328 788 354 764 q 250 811 303 811 l 189 811 l 189 886 l 250 886 q 322 906 297 886 q 346 961 346 926 q 322 1016 346 996 q 249 1036 297 1036 q 185 1022 214 1036 q 115 976 157 1008 l 76 1050 q 162 1104 118 1086 q 257 1122 206 1122 q 398 1081 343 1122 q 453 972 453 1039 q 426 894 453 928 q 349 849 399 861 q 432 800 403 836 q 461 715 461 764 q 405 603 461 647 q 257 558 349 558 z "},"⁴":{"ha":528,"x_min":47,"x_max":478,"o":"m 313 567 l 313 686 l 47 686 l 47 776 l 319 1114 l 410 1114 l 410 769 l 478 769 l 478 686 l 410 686 l 410 567 l 313 567 m 136 769 l 313 769 l 313 989 l 136 769 z "},"⁄":{"ha":318,"x_min":-139,"x_max":457,"o":"m -139 0 l 358 928 l 457 928 l -40 0 l -139 0 z "},"½":{"ha":1160,"x_min":40,"x_max":1092,"o":"m 233 0 l 731 928 l 831 928 l 333 0 l 233 0 m 190 381 l 190 811 l 81 753 l 40 835 l 218 928 l 294 928 l 294 381 l 190 381 m 717 0 l 717 88 l 928 282 q 965 326 953 304 q 976 374 976 349 q 949 442 976 415 q 882 469 922 469 q 823 453 851 469 q 756 410 794 438 l 717 483 q 802 538 758 519 q 893 556 846 556 q 1030 509 976 556 q 1083 381 1083 463 q 1067 313 1083 347 q 1000 232 1050 278 l 847 88 l 1092 88 l 1092 0 l 717 0 z "},"¼":{"ha":1124,"x_min":40,"x_max":1054,"o":"m 233 0 l 731 928 l 831 928 l 333 0 l 233 0 m 190 381 l 190 811 l 81 753 l 40 835 l 218 928 l 294 928 l 294 381 l 190 381 m 889 0 l 889 119 l 624 119 l 624 210 l 896 547 l 986 547 l 986 203 l 1054 203 l 1054 119 l 986 119 l 986 0 l 889 0 m 714 203 l 889 203 l 889 422 l 714 203 z "},"¾":{"ha":1228,"x_min":68,"x_max":1160,"o":"m 339 0 l 836 928 l 935 928 l 438 0 l 339 0 m 257 372 q 155 390 200 372 q 68 446 110 408 l 107 519 q 181 474 149 488 q 250 460 213 460 q 328 483 303 460 q 354 542 354 506 q 328 601 354 578 q 250 625 303 625 l 189 625 l 189 700 l 250 700 q 322 720 297 700 q 346 775 346 740 q 322 830 346 810 q 249 850 297 850 q 185 836 214 850 q 115 790 157 822 l 76 864 q 162 918 118 900 q 257 936 206 936 q 398 894 343 936 q 453 786 453 853 q 426 708 453 742 q 349 663 399 675 q 432 614 403 650 q 461 529 461 578 q 405 417 461 461 q 257 372 349 372 m 993 0 l 993 119 l 728 119 l 728 210 l 1000 547 l 1090 547 l 1090 203 l 1160 203 l 1160 119 l 1090 119 l 1090 0 l 993 0 m 818 203 l 993 203 l 993 422 l 818 203 z "},"\r":{"ha":335,"x_min":0,"x_max":0,"o":""},"\u0000":{"ha":0,"x_min":0,"x_max":0,"o":""}," ":{"ha":335,"x_min":0,"x_max":0,"o":""}," ":{"ha":335,"x_min":0,"x_max":0,"o":""},".":{"ha":358,"x_min":99,"x_max":260,"o":"m 179 -8 q 121 13 143 -8 q 99 67 99 35 q 121 122 99 100 q 179 143 143 143 q 238 122 215 143 q 260 67 260 100 q 238 13 260 35 q 179 -8 215 -8 z "},",":{"ha":358,"x_min":64,"x_max":240,"o":"m 133 -214 l 64 -181 q 105 -84 90 -133 q 119 19 119 -35 l 119 132 l 240 132 l 240 19 q 215 -118 240 -64 q 133 -214 189 -172 z "},":":{"ha":358,"x_min":99,"x_max":260,"o":"m 179 532 q 121 554 143 532 q 99 608 99 576 q 121 663 99 640 q 179 685 143 685 q 238 663 215 685 q 260 608 260 640 q 238 554 260 576 q 179 532 215 532 m 179 -8 q 121 13 143 -8 q 99 67 99 35 q 121 122 99 100 q 179 143 143 143 q 238 122 215 143 q 260 67 260 100 q 238 13 260 35 q 179 -8 215 -8 z "},";":{"ha":358,"x_min":64,"x_max":260,"o":"m 133 -214 l 64 -181 q 105 -84 90 -133 q 119 19 119 -35 l 119 132 l 240 132 l 240 19 q 215 -118 240 -64 q 133 -214 189 -172 m 179 532 q 121 554 143 532 q 99 608 99 576 q 121 663 99 640 q 179 685 143 685 q 238 663 215 685 q 260 608 260 640 q 238 554 260 576 q 179 532 215 532 z "},"…":{"ha":1075,"x_min":99,"x_max":975,"o":"m 894 -8 q 837 13 858 -8 q 815 67 815 35 q 837 122 815 100 q 894 143 858 143 q 953 122 931 143 q 975 67 975 100 q 953 13 975 35 q 894 -8 931 -8 m 179 -8 q 121 13 143 -8 q 99 67 99 35 q 121 122 99 100 q 179 143 143 143 q 238 122 215 143 q 260 67 260 100 q 238 13 260 35 q 179 -8 215 -8 m 538 -8 q 479 13 501 -8 q 457 67 457 35 q 479 122 457 100 q 538 143 501 143 q 596 122 574 143 q 618 67 618 100 q 596 13 618 35 q 538 -8 574 -8 z "},"!":{"ha":358,"x_min":99,"x_max":260,"o":"m 133 281 l 110 675 l 110 928 l 249 928 l 249 675 l 226 281 l 133 281 m 179 -8 q 121 13 143 -8 q 99 67 99 35 q 121 122 99 100 q 179 143 143 143 q 238 122 215 143 q 260 67 260 100 q 238 13 260 35 q 179 -8 215 -8 z "},"¡":{"ha":358,"x_min":99,"x_max":260,"o":"m 110 -253 l 110 0 l 133 396 l 226 396 l 249 0 l 249 -253 l 110 -253 m 179 532 q 121 554 143 532 q 99 608 99 576 q 121 663 99 640 q 179 685 143 685 q 238 663 215 685 q 260 608 260 640 q 238 554 260 576 q 179 532 215 532 z "},"?":{"ha":657,"x_min":32,"x_max":611,"o":"m 267 281 l 267 319 q 287 403 267 365 q 338 475 307 442 q 398 539 368 508 q 448 599 428 569 q 468 661 468 629 q 446 749 468 713 q 385 807 424 786 q 296 828 346 828 q 200 802 250 828 q 83 721 150 776 l 32 817 q 162 912 93 882 q 308 942 231 942 q 463 910 394 942 q 571 817 531 878 q 611 674 611 757 q 587 591 611 629 q 528 518 563 553 q 459 450 494 483 q 400 382 424 417 q 376 308 376 347 l 376 281 l 267 281 m 321 -8 q 263 13 285 -8 q 242 67 242 35 q 263 122 242 100 q 321 143 285 143 q 379 122 357 143 q 401 67 401 100 q 379 13 401 35 q 321 -8 357 -8 z "},"¿":{"ha":657,"x_min":47,"x_max":626,"o":"m 349 -267 q 195 -234 264 -267 q 87 -141 126 -201 q 47 1 47 -81 q 71 85 47 47 q 129 158 94 124 q 199 225 164 192 q 258 293 233 258 q 282 367 282 328 l 282 396 l 392 396 l 392 356 q 372 272 392 310 q 322 201 351 233 q 261 138 292 168 q 210 77 231 107 q 189 14 189 47 q 212 -74 189 -36 q 274 -131 235 -111 q 361 -151 313 -151 q 457 -126 407 -151 q 575 -44 507 -100 l 626 -142 q 496 -237 565 -207 q 349 -267 426 -267 m 336 532 q 278 554 300 532 q 257 608 257 576 q 278 663 257 640 q 336 685 300 685 q 394 663 372 685 q 417 608 417 640 q 394 554 417 576 q 336 532 372 532 z "},"·":{"ha":358,"x_min":99,"x_max":260,"o":"m 179 322 q 121 344 143 322 q 99 397 99 365 q 121 452 99 431 q 179 474 143 474 q 238 452 215 474 q 260 397 260 431 q 238 344 260 365 q 179 322 215 322 z "},"•":{"ha":564,"x_min":113,"x_max":451,"o":"m 283 236 q 192 257 231 236 q 133 315 154 278 q 113 397 113 351 q 133 481 113 444 q 192 538 154 517 q 283 558 231 558 q 372 538 335 558 q 431 481 410 517 q 451 397 451 444 q 431 315 451 351 q 372 257 410 278 q 283 236 335 236 z "},"*":{"ha":676,"x_min":68,"x_max":610,"o":"m 224 411 l 139 471 l 276 639 l 68 693 l 99 792 l 299 714 l 286 928 l 390 928 l 378 714 l 578 792 l 610 693 l 401 639 l 538 471 l 453 411 l 339 592 l 224 411 z "},"#":{"ha":882,"x_min":38,"x_max":844,"o":"m 136 0 l 179 244 l 38 244 l 53 338 l 196 338 l 242 590 l 99 590 l 115 683 l 257 683 l 300 928 l 414 928 l 369 683 l 589 683 l 633 928 l 747 928 l 703 683 l 844 683 l 829 590 l 686 590 l 642 338 l 783 338 l 767 244 l 625 244 l 583 0 l 469 0 l 511 244 l 293 244 l 250 0 l 136 0 m 310 338 l 528 338 l 574 590 l 354 590 l 310 338 z "},"/":{"ha":469,"x_min":24,"x_max":446,"o":"m 24 0 l 326 928 l 446 928 l 143 0 l 24 0 z "},"\\":{"ha":469,"x_min":24,"x_max":446,"o":"m 326 0 l 24 928 l 143 928 l 446 0 l 326 0 z "},"-":{"ha":511,"x_min":68,"x_max":444,"o":"m 68 344 l 68 450 l 444 450 l 444 344 l 68 344 z "},"­":{"ha":511,"x_min":68,"x_max":444,"o":"m 68 344 l 68 450 l 444 450 l 444 344 l 68 344 z "},"–":{"ha":789,"x_min":68,"x_max":722,"o":"m 68 344 l 68 450 l 722 450 l 722 344 l 68 344 z "},"—":{"ha":1108,"x_min":68,"x_max":1042,"o":"m 68 344 l 68 450 l 1042 450 l 1042 344 l 68 344 z "},"_":{"ha":660,"x_min":0,"x_max":660,"o":"m 0 -154 l 0 -60 l 660 -60 l 660 -154 l 0 -154 z "},"(":{"ha":478,"x_min":82,"x_max":440,"o":"m 339 -350 q 240 -235 286 -308 q 158 -69 193 -162 q 102 129 122 25 q 82 338 82 233 q 102 546 82 442 q 158 744 122 650 q 240 910 193 838 q 339 1025 286 983 l 440 1025 q 351 905 393 979 q 278 739 310 831 q 228 544 247 647 q 210 338 210 442 q 228 131 210 233 q 278 -64 247 28 q 351 -229 310 -156 q 440 -350 393 -303 l 339 -350 z "},")":{"ha":478,"x_min":39,"x_max":397,"o":"m 39 -350 q 126 -229 85 -303 q 200 -64 168 -156 q 250 131 232 28 q 268 338 268 233 q 250 544 268 442 q 200 740 232 647 q 126 906 168 832 q 39 1025 85 979 l 140 1025 q 239 910 193 983 q 321 744 285 838 q 377 546 357 650 q 397 338 397 442 q 377 129 397 233 q 321 -69 357 25 q 239 -235 285 -162 q 140 -350 193 -308 l 39 -350 z "},"{":{"ha":525,"x_min":68,"x_max":450,"o":"m 344 -350 q 251 -327 292 -350 q 188 -264 211 -304 q 165 -171 165 -224 l 165 188 q 143 263 165 240 q 68 285 121 285 l 68 390 q 143 413 121 390 q 165 488 165 435 l 165 847 q 188 940 165 900 q 251 1002 211 979 q 344 1025 292 1025 l 450 1025 l 450 918 l 381 918 q 310 894 333 918 q 286 822 286 871 l 286 449 q 264 378 286 407 q 189 338 242 349 q 264 297 242 326 q 286 226 286 268 l 286 -146 q 310 -219 286 -194 q 381 -243 333 -243 l 450 -243 l 450 -350 l 344 -350 z "},"}":{"ha":525,"x_min":75,"x_max":457,"o":"m 75 -350 l 75 -243 l 144 -243 q 215 -219 192 -243 q 239 -146 239 -194 l 239 226 q 261 297 239 268 q 336 338 283 326 q 261 378 283 349 q 239 449 239 407 l 239 822 q 215 894 239 871 q 144 918 192 918 l 75 918 l 75 1025 l 181 1025 q 274 1002 233 1025 q 337 940 314 979 q 360 847 360 900 l 360 488 q 382 413 360 435 q 457 390 404 390 l 457 285 q 382 263 404 285 q 360 188 360 240 l 360 -171 q 337 -264 360 -224 q 274 -327 314 -304 q 181 -350 233 -350 l 75 -350 z "},"[":{"ha":525,"x_min":110,"x_max":450,"o":"m 110 -350 l 110 1025 l 450 1025 l 450 918 l 231 918 l 231 -243 l 450 -243 l 450 -350 l 110 -350 z "},"]":{"ha":525,"x_min":76,"x_max":417,"o":"m 76 -350 l 76 -243 l 294 -243 l 294 918 l 76 918 l 76 1025 l 417 1025 l 417 -350 l 76 -350 z "},"‚":{"ha":358,"x_min":64,"x_max":240,"o":"m 133 -214 l 64 -181 q 105 -84 90 -133 q 119 19 119 -35 l 119 132 l 240 132 l 240 19 q 215 -118 240 -64 q 133 -214 189 -172 z "},"„":{"ha":606,"x_min":64,"x_max":486,"o":"m 381 -214 l 310 -181 q 353 -85 339 -135 q 367 19 367 -35 l 367 132 l 486 132 l 486 19 q 462 -118 486 -64 q 381 -214 438 -172 m 133 -214 l 64 -181 q 105 -84 90 -133 q 119 19 119 -35 l 119 132 l 240 132 l 240 19 q 215 -118 240 -64 q 133 -214 189 -172 z "},"“":{"ha":606,"x_min":119,"x_max":542,"o":"m 367 583 l 367 694 q 391 832 367 778 q 472 928 415 886 l 542 894 q 500 799 514 849 q 486 694 486 749 l 486 583 l 367 583 m 119 583 l 119 694 q 144 832 119 778 q 225 928 169 886 l 296 894 q 254 799 268 849 q 240 694 240 749 l 240 583 l 119 583 z "},"”":{"ha":606,"x_min":64,"x_max":486,"o":"m 381 583 l 310 617 q 352 713 338 663 q 367 815 367 763 l 367 928 l 486 928 l 486 815 q 462 679 486 733 q 381 583 438 625 m 133 583 l 64 617 q 105 713 90 663 q 119 815 119 763 l 119 928 l 240 928 l 240 815 q 215 679 240 733 q 133 583 189 625 z "},"‘":{"ha":358,"x_min":119,"x_max":296,"o":"m 119 583 l 119 694 q 144 832 119 778 q 226 928 169 886 l 296 894 q 254 798 268 847 q 240 694 240 749 l 240 583 l 119 583 z "},"’":{"ha":358,"x_min":64,"x_max":240,"o":"m 133 583 l 64 617 q 105 713 90 663 q 119 815 119 763 l 119 928 l 240 928 l 240 815 q 215 679 240 733 q 133 583 189 625 z "},"«":{"ha":674,"x_min":68,"x_max":607,"o":"m 485 157 l 346 397 l 485 640 l 607 640 l 468 397 l 607 157 l 485 157 m 207 157 l 68 397 l 207 640 l 328 640 l 189 397 l 328 157 l 207 157 z "},"»":{"ha":674,"x_min":68,"x_max":607,"o":"m 346 157 l 485 397 l 346 640 l 468 640 l 607 397 l 468 157 l 346 157 m 68 157 l 207 397 l 68 640 l 189 640 l 328 397 l 189 157 l 68 157 z "},"‹":{"ha":396,"x_min":68,"x_max":328,"o":"m 207 157 l 68 397 l 207 640 l 328 640 l 189 397 l 328 157 l 207 157 z "},"›":{"ha":396,"x_min":68,"x_max":328,"o":"m 68 157 l 207 397 l 68 640 l 189 640 l 328 397 l 189 157 l 68 157 z "},"\"":{"ha":606,"x_min":113,"x_max":492,"o":"m 379 539 l 361 928 l 492 928 l 472 539 l 379 539 m 133 539 l 113 928 l 246 928 l 226 539 l 133 539 z "},"'":{"ha":358,"x_min":113,"x_max":246,"o":"m 133 539 l 113 928 l 246 928 l 225 539 l 133 539 z "},"ƒ":{"ha":772,"x_min":47,"x_max":725,"o":"m 144 -261 q 91 -258 118 -261 q 47 -249 64 -254 l 47 -143 q 74 -146 57 -144 q 110 -148 92 -147 q 139 -149 128 -149 q 215 -125 188 -149 q 251 -53 243 -101 l 333 413 l 146 413 l 146 524 l 353 524 l 392 739 q 467 888 410 840 q 626 936 524 936 q 681 933 654 936 q 725 925 708 931 l 725 819 q 700 822 717 821 q 665 824 683 824 q 635 825 646 825 q 558 801 586 825 q 521 729 531 776 l 485 524 l 674 524 l 674 413 l 465 413 l 382 -64 q 306 -213 364 -165 q 144 -261 247 -261 z "},"@":{"ha":1257,"x_min":68,"x_max":1190,"o":"m 629 -153 q 400 -112 503 -153 q 223 2 297 -72 q 108 176 149 76 q 68 394 68 276 q 108 613 68 514 q 223 787 149 713 q 400 901 297 861 q 629 942 503 942 q 858 904 754 942 q 1035 799 961 867 q 1150 643 1110 732 q 1190 450 1190 554 q 1160 275 1190 346 q 1075 167 1129 204 q 951 131 1021 131 q 848 163 889 131 q 788 260 807 196 q 715 167 761 203 q 592 131 668 131 q 424 201 486 131 q 363 394 363 271 q 424 589 363 519 q 592 658 486 658 q 696 632 654 658 q 761 561 738 606 l 761 647 l 867 647 l 867 342 q 894 253 867 285 q 960 222 921 222 q 1058 278 1024 222 q 1093 450 1093 333 q 1035 658 1093 567 q 872 801 976 749 q 629 854 768 854 q 385 797 490 854 q 223 636 281 739 q 165 394 165 533 q 223 153 165 257 q 385 -7 281 50 q 629 -64 489 -64 q 767 -48 703 -64 q 883 0 832 -32 l 917 -74 q 786 -133 858 -114 q 629 -153 714 -153 m 617 222 q 724 266 685 222 q 763 394 763 310 q 723 524 763 481 q 617 567 683 567 q 510 524 550 567 q 469 394 469 481 q 510 266 469 310 q 617 222 550 222 z "},"&":{"ha":933,"x_min":68,"x_max":928,"o":"m 356 -14 q 199 20 264 -14 q 101 110 135 54 q 68 232 68 167 q 113 381 68 319 q 246 478 157 442 l 288 494 q 209 607 231 557 q 188 706 188 657 q 217 824 188 769 q 303 910 246 878 q 443 942 361 942 q 583 910 526 942 q 670 824 640 878 q 700 706 700 769 q 658 581 700 635 q 518 486 617 526 l 475 468 l 643 294 l 747 450 l 883 450 l 721 214 l 928 0 l 760 0 l 649 117 q 519 17 588 47 q 356 -14 450 -14 m 364 106 q 469 126 417 106 q 571 199 521 146 l 364 415 l 310 392 q 230 333 258 369 q 201 243 201 297 q 246 144 201 183 q 364 106 290 106 m 406 540 l 465 565 q 546 620 522 589 q 569 701 569 651 q 537 794 569 758 q 443 831 504 831 q 351 794 383 831 q 318 701 318 758 q 339 626 318 663 q 406 540 360 590 z "},"¶":{"ha":799,"x_min":68,"x_max":690,"o":"m 326 -253 l 326 438 q 194 468 253 438 q 102 553 136 499 q 68 682 68 608 q 102 812 68 757 q 194 897 136 867 q 326 928 253 928 l 690 928 l 690 -253 l 588 -253 l 588 831 l 428 831 l 428 -253 l 326 -253 z "},"§":{"ha":826,"x_min":68,"x_max":760,"o":"m 397 -267 q 257 -244 322 -267 q 131 -178 192 -221 l 185 -75 q 298 -136 246 -115 q 400 -157 350 -157 q 503 -130 464 -157 q 542 -54 542 -103 q 517 10 542 -14 q 444 61 493 35 l 250 168 q 141 240 181 206 q 85 311 101 275 q 68 389 68 347 q 119 508 68 461 q 257 565 171 556 q 180 637 208 599 q 151 726 151 675 q 180 835 151 786 q 265 913 208 885 q 408 942 322 942 q 542 921 479 942 q 656 864 606 900 l 603 765 q 512 813 560 794 q 414 832 464 832 q 320 809 356 832 q 285 733 285 786 q 310 672 285 697 q 376 625 335 647 l 569 519 q 682 447 640 482 q 742 374 724 413 q 760 286 760 336 q 710 167 760 213 q 579 110 661 121 q 649 42 622 78 q 676 -50 676 6 q 603 -207 676 -147 q 397 -267 529 -267 m 490 167 q 587 202 549 174 q 625 285 625 231 q 617 335 625 314 q 588 374 608 356 q 528 414 567 393 l 349 511 q 276 494 310 508 q 222 455 243 479 q 201 393 201 431 q 222 329 201 357 q 293 274 242 301 l 490 167 z "},"©":{"ha":1115,"x_min":68,"x_max":1047,"o":"m 557 -14 q 301 48 411 -14 q 129 217 190 110 q 68 464 68 325 q 129 710 68 603 q 301 880 190 818 q 557 942 411 942 q 815 880 704 942 q 986 710 925 818 q 1047 464 1047 603 q 986 217 1047 325 q 815 48 925 110 q 557 -14 704 -14 m 569 233 q 404 297 463 233 q 346 464 346 361 q 404 631 346 567 q 569 694 463 694 q 653 681 615 694 q 722 642 692 668 l 686 572 q 630 602 660 592 q 568 613 600 613 q 476 572 510 613 q 442 464 442 531 q 476 357 442 397 q 568 317 510 317 q 629 326 600 317 q 686 356 658 336 l 722 288 q 653 247 692 261 q 569 233 615 233 m 557 67 q 770 117 679 67 q 911 257 861 167 q 961 464 961 347 q 911 672 961 582 q 770 812 861 761 q 557 863 679 863 q 346 812 436 863 q 206 672 256 761 q 156 464 156 582 q 206 257 156 347 q 346 117 256 167 q 557 67 436 67 z "},"®":{"ha":825,"x_min":68,"x_max":757,"o":"m 411 264 q 232 308 310 264 q 111 430 154 353 q 68 603 68 507 q 111 776 68 700 q 232 897 154 853 q 411 942 310 942 q 592 897 514 942 q 714 776 671 853 q 757 603 757 700 q 714 430 757 507 q 593 308 671 353 q 411 264 515 264 m 411 321 q 562 357 499 321 q 659 457 625 393 q 693 603 693 521 q 658 749 693 686 q 560 849 624 813 q 411 886 497 886 q 263 849 326 886 q 165 749 199 813 q 131 603 131 686 q 165 457 131 521 q 263 357 200 393 q 411 321 326 321 m 290 436 l 290 772 l 422 772 q 516 747 485 772 q 547 672 547 722 q 525 607 547 631 q 461 576 503 583 l 565 436 l 485 436 l 386 572 l 354 572 l 354 436 l 290 436 m 354 626 l 415 626 q 464 638 447 626 q 481 672 481 650 q 464 706 481 694 q 415 718 447 718 l 354 718 l 354 626 z "},"™":{"ha":778,"x_min":28,"x_max":711,"o":"m 335 592 l 335 928 l 436 928 l 522 682 l 608 928 l 711 928 l 711 592 l 646 592 l 646 858 l 551 592 l 493 592 l 399 858 l 399 592 l 335 592 m 124 592 l 124 869 l 28 869 l 28 928 l 285 928 l 285 869 l 189 869 l 189 592 l 124 592 z "},"°":{"ha":518,"x_min":68,"x_max":449,"o":"m 258 588 q 120 636 172 588 q 68 764 68 685 q 120 892 68 843 q 258 942 172 942 q 397 892 344 942 q 449 764 449 843 q 397 636 449 685 q 258 588 344 588 m 258 661 q 336 690 307 661 q 365 764 365 718 q 336 840 365 811 q 258 869 307 869 q 181 840 210 869 q 153 764 153 810 q 181 690 153 718 q 258 661 210 661 z "},"|":{"ha":329,"x_min":110,"x_max":219,"o":"m 110 -350 l 110 1025 l 219 1025 l 219 -350 l 110 -350 z "},"¦":{"ha":329,"x_min":110,"x_max":219,"o":"m 110 392 l 110 1025 l 219 1025 l 219 392 l 110 392 m 110 -350 l 110 283 l 219 283 l 219 -350 l 110 -350 z "},"†":{"ha":725,"x_min":82,"x_max":644,"o":"m 306 -139 l 306 594 l 82 594 l 82 700 l 306 700 l 306 928 l 421 928 l 421 700 l 644 700 l 644 594 l 421 594 l 421 -139 l 306 -139 z "},"‡":{"ha":725,"x_min":82,"x_max":644,"o":"m 306 -139 l 306 90 l 82 90 l 82 194 l 306 194 l 306 594 l 82 594 l 82 700 l 306 700 l 306 928 l 421 928 l 421 700 l 644 700 l 644 594 l 421 594 l 421 194 l 644 194 l 644 90 l 421 90 l 421 -139 l 306 -139 z "},"€":{"ha":892,"x_min":40,"x_max":826,"o":"m 521 -14 q 340 27 421 -14 q 205 142 260 68 q 126 314 150 215 l 40 314 l 40 394 l 113 394 q 110 465 110 426 q 113 533 110 503 l 40 533 l 40 615 l 126 615 q 203 787 150 714 q 338 901 257 860 q 521 942 418 942 q 682 912 610 942 q 826 817 754 882 l 775 724 q 647 803 700 779 q 526 828 593 828 q 372 776 442 828 q 271 615 303 724 l 663 615 l 625 533 l 256 533 q 251 465 251 497 q 256 394 251 432 l 563 394 l 526 314 l 272 314 q 334 194 294 242 q 424 124 374 147 q 526 101 474 101 q 647 124 592 101 q 775 204 701 147 l 826 111 q 682 17 754 47 q 521 -14 610 -14 z "},"¢":{"ha":703,"x_min":68,"x_max":643,"o":"m 261 -139 l 293 3 q 129 118 190 33 q 68 326 68 203 q 112 506 68 429 q 233 624 156 582 q 410 667 310 667 q 428 666 419 667 q 446 665 436 665 l 475 792 l 553 792 l 521 651 q 586 626 556 642 q 643 588 617 611 l 594 489 q 546 519 571 506 q 494 539 521 532 l 394 101 q 403 101 399 101 q 410 101 407 101 q 503 117 457 101 q 594 165 550 132 l 643 65 q 539 7 597 28 q 410 -14 481 -14 q 390 -13 400 -14 q 368 -11 379 -12 l 339 -139 l 261 -139 m 321 118 l 419 551 q 414 553 418 553 q 406 553 410 553 q 301 526 347 553 q 228 448 254 499 q 201 326 201 397 q 233 196 201 249 q 321 118 265 143 z "},"¤":{"ha":1031,"x_min":36,"x_max":994,"o":"m 122 -15 l 36 71 l 244 278 q 199 464 199 357 q 244 650 199 569 l 36 858 l 122 943 l 328 736 q 413 776 365 763 q 515 789 460 789 q 617 776 571 789 q 703 736 664 763 l 910 943 l 994 858 l 786 650 q 822 564 810 610 q 833 464 833 518 q 822 363 833 410 q 785 278 810 317 l 994 71 l 910 -15 l 703 192 q 618 152 665 165 q 515 139 571 139 q 413 153 460 139 q 326 192 365 167 l 122 -15 m 515 242 q 660 303 610 242 q 710 464 710 364 q 660 626 710 565 q 515 686 610 686 q 372 626 422 686 q 322 464 322 565 q 372 303 322 364 q 515 242 422 242 z "},"$":{"ha":822,"x_min":68,"x_max":756,"o":"m 231 -139 l 263 3 q 163 44 211 18 q 68 111 115 71 l 124 221 q 210 162 168 185 q 292 125 251 139 l 358 419 l 329 425 q 151 510 206 449 q 96 658 96 571 q 131 800 96 736 q 238 903 165 864 q 419 942 310 942 q 449 941 435 942 q 479 939 464 940 l 508 1067 l 592 1067 l 558 924 q 645 890 603 913 q 728 836 688 868 l 671 728 q 601 772 635 753 q 531 803 567 790 l 469 535 l 521 525 q 699 433 643 503 q 756 276 756 363 q 665 66 756 146 q 403 -14 574 -14 q 372 -12 386 -14 q 343 -10 357 -11 l 314 -139 l 231 -139 m 371 108 q 387 107 379 107 q 403 107 394 107 q 558 148 504 107 q 613 263 613 189 q 579 349 613 314 q 482 396 546 385 l 439 404 l 371 108 m 389 550 l 451 819 q 438 821 444 821 q 422 821 431 821 q 284 782 331 821 q 238 676 238 743 q 270 597 238 625 q 365 556 303 568 l 389 550 z "},"£":{"ha":769,"x_min":40,"x_max":703,"o":"m 68 0 l 68 101 q 128 149 107 121 q 159 211 150 178 q 168 278 168 244 q 163 324 168 299 q 149 378 157 350 l 40 378 l 40 458 l 126 458 q 94 553 107 506 q 82 646 82 600 q 124 804 82 738 q 238 906 165 871 q 404 942 311 942 q 558 912 486 942 q 703 817 631 882 l 656 726 q 526 806 582 783 q 410 828 469 828 q 313 805 356 828 q 247 742 271 782 q 224 646 224 701 q 235 553 224 600 q 261 458 247 507 l 519 458 l 519 378 l 281 378 q 293 326 289 351 q 297 278 297 301 q 290 217 297 249 q 266 159 283 186 q 217 115 249 132 l 703 115 l 703 0 l 68 0 z "},"¥":{"ha":892,"x_min":63,"x_max":831,"o":"m 376 0 l 376 119 l 151 119 l 151 200 l 376 200 l 376 336 l 151 336 l 151 417 l 343 417 l 63 928 l 221 928 l 446 503 l 672 928 l 831 928 l 549 417 l 742 417 l 742 336 l 517 336 l 517 200 l 742 200 l 742 119 l 517 119 l 517 0 l 376 0 z "},"+":{"ha":808,"x_min":104,"x_max":706,"o":"m 344 164 l 344 410 l 104 410 l 104 519 l 344 519 l 344 765 l 464 765 l 464 519 l 706 519 l 706 410 l 464 410 l 464 164 l 344 164 z "},"−":{"ha":808,"x_min":104,"x_max":706,"o":"m 104 410 l 104 519 l 706 519 l 706 410 l 104 410 z "},"×":{"ha":808,"x_min":104,"x_max":706,"o":"m 189 164 l 104 249 l 319 464 l 104 681 l 189 765 l 404 550 l 621 765 l 706 681 l 490 464 l 706 249 l 621 164 l 404 379 l 189 164 z "},"÷":{"ha":808,"x_min":104,"x_max":706,"o":"m 104 410 l 104 519 l 706 519 l 706 410 l 104 410 m 404 144 q 351 163 371 144 q 332 214 332 182 q 351 263 332 243 q 404 283 369 283 q 458 263 439 283 q 478 214 478 243 q 458 164 478 183 q 404 144 439 144 m 404 644 q 351 665 371 644 q 332 714 332 685 q 351 765 332 746 q 404 785 369 785 q 458 765 439 785 q 478 714 478 746 q 458 665 478 685 q 404 644 439 644 z "},"=":{"ha":808,"x_min":104,"x_max":706,"o":"m 104 563 l 104 672 l 706 672 l 706 563 l 104 563 m 104 256 l 104 365 l 706 365 l 706 256 l 104 256 z "},"≠":{"ha":767,"x_min":104,"x_max":706,"o":"m 265 131 l 300 256 l 104 256 l 104 365 l 329 365 l 381 563 l 104 563 l 104 672 l 410 672 l 444 799 l 543 799 l 510 672 l 706 672 l 706 563 l 481 563 l 428 365 l 706 365 l 706 256 l 399 256 l 364 131 l 265 131 z "},">":{"ha":808,"x_min":104,"x_max":706,"o":"m 104 175 l 104 297 l 563 464 l 104 632 l 104 754 l 706 522 l 706 406 l 104 175 z "},"<":{"ha":808,"x_min":104,"x_max":706,"o":"m 706 175 l 104 406 l 104 522 l 706 754 l 706 633 l 243 464 l 706 294 l 706 175 z "},"≥":{"ha":808,"x_min":104,"x_max":706,"o":"m 104 242 l 104 360 l 550 519 l 104 676 l 104 796 l 706 578 l 706 460 l 104 242 m 104 0 l 104 111 l 706 111 l 706 0 l 104 0 z "},"≤":{"ha":808,"x_min":104,"x_max":706,"o":"m 706 242 l 104 460 l 104 578 l 706 796 l 706 676 l 260 519 l 706 360 l 706 242 m 104 0 l 104 111 l 706 111 l 706 0 l 104 0 z "},"±":{"ha":808,"x_min":104,"x_max":706,"o":"m 344 229 l 344 463 l 104 463 l 104 572 l 344 572 l 344 806 l 464 806 l 464 572 l 706 572 l 706 463 l 464 463 l 464 229 l 344 229 m 104 0 l 104 111 l 706 111 l 706 0 l 104 0 z "},"≈":{"ha":808,"x_min":104,"x_max":706,"o":"m 104 511 q 144 687 104 625 q 269 749 183 749 q 351 729 314 749 q 419 685 388 710 q 480 641 451 660 q 535 622 508 622 q 583 653 569 622 q 604 749 597 683 l 706 749 q 665 573 706 635 q 539 511 625 511 q 458 531 494 511 q 389 575 421 550 q 328 619 357 600 q 274 639 300 639 q 225 608 239 639 q 204 511 211 576 l 104 511 m 104 181 q 144 355 104 293 q 269 417 183 417 q 351 398 314 417 q 419 353 388 379 q 480 309 451 328 q 535 290 508 290 q 583 322 569 290 q 604 417 597 353 l 706 417 q 665 242 706 303 q 539 181 625 181 q 458 199 494 181 q 389 243 421 218 q 328 288 357 268 q 274 307 300 307 q 225 276 239 307 q 204 181 211 244 l 104 181 z "},"~":{"ha":808,"x_min":104,"x_max":706,"o":"m 104 346 q 144 521 104 460 q 269 582 183 582 q 351 563 314 582 q 419 519 388 544 q 480 475 451 494 q 535 456 508 456 q 583 487 569 456 q 604 582 597 518 l 706 582 q 665 408 706 469 q 539 346 625 346 q 458 365 494 346 q 389 410 421 385 q 329 453 357 435 q 274 472 301 472 q 225 442 239 472 q 206 346 211 411 l 104 346 z "},"¬":{"ha":808,"x_min":104,"x_max":706,"o":"m 585 286 l 585 531 l 104 531 l 104 642 l 706 642 l 706 286 l 585 286 z "},"^":{"ha":808,"x_min":139,"x_max":671,"o":"m 139 424 l 339 928 l 468 928 l 671 424 l 550 424 l 404 803 l 260 424 l 139 424 z "},"∞":{"ha":1114,"x_min":68,"x_max":1047,"o":"m 315 226 q 133 288 199 226 q 68 464 68 349 q 133 641 68 579 q 315 703 199 703 q 394 692 357 703 q 472 649 432 681 q 557 550 511 617 q 643 649 604 617 q 720 692 682 681 q 799 703 758 703 q 981 641 915 703 q 1047 464 1047 579 q 981 288 1047 349 q 799 226 915 226 q 720 236 758 226 q 643 278 682 246 q 557 376 604 311 q 472 278 511 311 q 394 236 432 246 q 315 226 357 226 m 321 319 q 415 352 372 319 q 504 464 457 385 q 415 576 457 543 q 321 608 372 608 q 215 569 253 608 q 176 464 176 529 q 215 360 176 400 q 321 319 253 319 m 793 319 q 901 360 863 319 q 939 464 939 400 q 900 569 939 529 q 793 608 861 608 q 700 576 742 608 q 610 464 658 543 q 700 352 658 385 q 793 319 742 319 z "},"∫":{"ha":565,"x_min":47,"x_max":518,"o":"m 147 -261 q 92 -258 121 -261 q 47 -249 64 -254 l 47 -143 q 83 -147 61 -146 q 121 -149 104 -149 q 194 -125 169 -149 q 218 -53 218 -101 l 218 739 q 267 888 218 840 q 419 936 317 936 q 474 933 446 936 q 518 925 501 931 l 518 819 q 484 824 506 822 q 446 825 463 825 q 372 801 396 825 q 349 729 349 776 l 349 -64 q 299 -213 349 -165 q 147 -261 250 -261 z "},"Ω":{"ha":1083,"x_min":68,"x_max":1017,"o":"m 82 0 l 82 124 l 329 124 q 194 201 253 150 q 101 324 135 251 q 68 486 68 397 q 124 722 68 619 q 286 883 181 824 q 542 942 392 942 q 798 883 692 942 q 960 722 904 824 q 1017 486 1017 619 q 983 324 1017 397 q 891 201 950 251 q 756 124 832 150 l 1003 124 l 1003 0 l 611 0 l 611 124 q 810 253 746 171 q 874 464 874 335 q 835 653 874 574 q 722 776 796 732 q 542 819 649 819 q 362 776 436 819 q 249 653 288 732 q 210 464 210 574 q 274 253 210 335 q 472 124 338 171 l 472 0 l 82 0 z "},"∆":{"ha":974,"x_min":35,"x_max":939,"o":"m 35 0 l 410 928 l 563 928 l 939 0 l 35 0 m 232 124 l 742 124 l 486 781 l 232 124 z "},"∏":{"ha":792,"x_min":104,"x_max":689,"o":"m 104 -253 l 104 928 l 689 928 l 689 -253 l 557 -253 l 557 814 l 235 814 l 235 -253 l 104 -253 z "},"∑":{"ha":647,"x_min":57,"x_max":590,"o":"m 57 -253 l 57 -157 l 310 338 l 57 833 l 57 928 l 590 928 l 590 818 l 200 818 l 444 338 l 200 -142 l 590 -142 l 590 -253 l 57 -253 z "},"√":{"ha":946,"x_min":47,"x_max":911,"o":"m 310 -253 l 149 161 l 47 161 l 47 267 l 240 267 l 382 -117 l 768 928 l 911 928 l 453 -253 l 310 -253 z "},"µ":{"ha":792,"x_min":104,"x_max":689,"o":"m 104 -253 l 104 653 l 235 653 l 235 267 q 270 141 235 181 q 379 101 306 101 q 510 159 464 101 q 557 318 557 217 l 557 653 l 689 653 l 689 0 l 563 0 l 563 97 q 494 12 536 38 q 383 -14 451 -14 q 296 1 332 -14 q 235 50 260 17 l 235 -253 l 104 -253 z "},"∂":{"ha":860,"x_min":64,"x_max":796,"o":"m 354 -14 q 194 24 258 -14 q 97 125 129 61 q 64 268 64 189 q 109 447 64 374 q 232 560 154 521 q 407 600 310 600 q 561 567 494 600 q 651 472 628 533 q 660 533 658 503 q 661 586 661 563 q 631 720 661 667 q 551 801 601 774 q 439 828 500 828 q 322 803 378 828 q 204 726 265 779 l 171 817 q 306 913 236 883 q 461 942 375 942 q 640 895 565 942 q 756 765 715 849 q 796 569 796 681 q 779 392 796 478 q 728 232 763 306 q 640 103 693 158 q 516 17 588 49 q 354 -14 444 -14 m 368 101 q 540 169 472 101 q 628 349 607 236 q 576 453 628 411 q 433 496 525 496 q 308 467 361 496 q 227 389 256 439 q 199 274 199 339 q 244 148 199 194 q 368 101 290 101 z "},"%":{"ha":1314,"x_min":68,"x_max":1247,"o":"m 358 0 l 851 928 l 956 928 l 464 0 l 358 0 m 292 372 q 169 408 219 372 q 94 508 119 444 q 68 654 68 572 q 94 800 68 736 q 169 900 119 864 q 292 936 219 936 q 413 900 364 936 q 488 800 463 864 q 514 654 514 736 q 488 508 514 572 q 413 408 463 444 q 292 372 364 372 m 290 460 q 374 506 342 460 q 407 654 407 553 q 374 803 407 756 q 290 850 342 850 q 207 803 239 850 q 175 654 175 756 q 207 506 175 553 q 290 460 239 460 m 1024 -8 q 901 28 951 -8 q 826 128 851 64 q 800 274 800 192 q 826 419 800 356 q 901 519 851 483 q 1024 556 951 556 q 1147 519 1097 556 q 1222 419 1196 483 q 1247 274 1247 356 q 1222 128 1247 192 q 1147 28 1196 64 q 1024 -8 1097 -8 m 1024 79 q 1108 126 1075 79 q 1140 274 1140 172 q 1108 422 1140 375 q 1024 469 1075 469 q 940 422 972 469 q 908 274 908 375 q 940 126 908 172 q 1024 79 972 79 z "},"‰":{"ha":1842,"x_min":68,"x_max":1775,"o":"m 358 0 l 851 928 l 956 928 l 464 0 l 358 0 m 292 372 q 169 408 219 372 q 94 508 119 444 q 68 654 68 572 q 94 800 68 736 q 169 900 119 864 q 292 936 219 936 q 413 900 364 936 q 488 800 463 864 q 514 654 514 736 q 488 508 514 572 q 413 408 463 444 q 292 372 364 372 m 290 460 q 374 506 342 460 q 407 654 407 553 q 374 803 407 756 q 290 850 342 850 q 207 803 239 850 q 175 654 175 756 q 207 506 175 553 q 290 460 239 460 m 1024 -8 q 901 28 951 -8 q 826 128 851 64 q 800 274 800 192 q 826 419 800 356 q 901 519 851 483 q 1024 556 951 556 q 1147 519 1097 556 q 1222 419 1196 483 q 1247 274 1247 356 q 1222 128 1247 192 q 1147 28 1196 64 q 1024 -8 1097 -8 m 1024 79 q 1108 126 1075 79 q 1140 274 1140 172 q 1108 422 1140 375 q 1024 469 1075 469 q 940 422 972 469 q 908 274 908 375 q 940 126 908 172 q 1024 79 972 79 m 1551 -8 q 1429 28 1479 -8 q 1353 128 1379 64 q 1328 274 1328 192 q 1353 419 1328 356 q 1429 519 1379 483 q 1551 556 1479 556 q 1674 519 1625 556 q 1749 419 1724 483 q 1775 274 1775 356 q 1749 128 1775 192 q 1674 28 1724 64 q 1551 -8 1625 -8 m 1551 79 q 1635 126 1603 79 q 1668 274 1668 172 q 1635 422 1668 375 q 1551 469 1603 469 q 1468 422 1500 469 q 1436 274 1436 375 q 1468 126 1436 172 q 1551 79 1500 79 z "},"◊":{"ha":804,"x_min":68,"x_max":736,"o":"m 342 0 l 68 464 l 342 928 l 461 928 l 736 464 l 461 0 l 342 0 m 401 115 l 610 464 l 401 813 l 193 464 l 401 115 z "},"̈":{"ha":0,"x_min":214,"x_max":621,"o":"m 550 794 q 498 814 517 794 q 479 863 479 833 q 498 910 479 892 q 550 929 517 929 q 601 910 582 929 q 621 863 621 892 q 601 814 621 833 q 550 794 582 794 m 285 794 q 233 814 251 794 q 214 863 214 833 q 233 910 214 892 q 285 929 251 929 q 336 910 317 929 q 356 863 356 892 q 336 814 356 833 q 285 794 317 794 z "},"̇":{"ha":0,"x_min":346,"x_max":488,"o":"m 417 794 q 365 814 385 794 q 346 863 346 833 q 365 910 346 892 q 417 929 385 929 q 468 910 449 929 q 488 863 488 892 q 468 814 488 833 q 417 794 449 794 z "},"̀":{"ha":0,"x_min":286,"x_max":518,"o":"m 428 757 l 286 967 l 418 967 l 518 757 l 428 757 z "},"́":{"ha":0,"x_min":317,"x_max":549,"o":"m 317 757 l 417 967 l 549 967 l 407 757 l 317 757 z "},"̋":{"ha":0,"x_min":200,"x_max":664,"o":"m 432 757 l 532 967 l 664 967 l 522 757 l 432 757 m 200 757 l 300 967 l 433 967 l 292 757 l 200 757 z "},"̂":{"ha":0,"x_min":215,"x_max":619,"o":"m 215 757 l 356 967 l 479 967 l 619 757 l 517 757 l 417 896 l 318 757 l 215 757 z "},"̌":{"ha":0,"x_min":215,"x_max":619,"o":"m 356 757 l 215 967 l 318 967 l 417 829 l 517 967 l 619 967 l 479 757 l 356 757 z "},"̆":{"ha":0,"x_min":229,"x_max":606,"o":"m 417 743 q 275 794 321 743 q 229 925 229 844 l 229 967 l 315 967 l 315 925 q 341 856 315 882 q 417 831 367 831 q 492 856 467 831 q 518 925 518 882 l 518 967 l 606 967 l 606 925 q 559 794 606 844 q 417 743 513 743 z "},"̊":{"ha":0,"x_min":258,"x_max":576,"o":"m 417 715 q 301 757 344 715 q 258 863 258 799 q 301 967 258 926 q 417 1008 344 1008 q 533 967 489 1008 q 576 863 576 926 q 533 757 576 799 q 417 715 489 715 m 417 776 q 481 800 457 776 q 504 863 504 824 q 481 924 504 900 q 417 947 457 947 q 353 924 378 947 q 329 863 329 900 q 353 800 329 824 q 417 776 376 776 z "},"̃":{"ha":0,"x_min":201,"x_max":633,"o":"m 201 774 q 215 872 201 833 q 256 931 228 911 q 325 951 283 951 q 381 938 356 951 q 428 906 407 924 q 470 874 450 888 q 507 860 490 860 q 540 880 528 860 q 554 951 551 900 l 633 951 q 619 853 633 893 q 578 794 606 814 q 508 774 551 774 q 453 788 479 774 q 406 819 428 801 q 364 850 383 836 q 326 864 344 864 q 295 844 307 864 q 281 774 283 825 l 201 774 z "},"̄":{"ha":0,"x_min":229,"x_max":606,"o":"m 229 818 l 229 907 l 606 907 l 606 818 l 229 818 z "},"̒":{"ha":0,"x_min":119,"x_max":296,"o":"m 226 1014 l 296 981 q 265 917 278 950 q 246 851 253 885 q 239 782 239 818 l 239 738 l 119 738 l 119 782 q 144 918 119 864 q 226 1014 169 972 z "},"̦":{"ha":0,"x_min":64,"x_max":240,"o":"m 133 -361 l 64 -328 q 94 -264 82 -296 q 113 -198 107 -232 q 119 -128 119 -164 l 119 -83 l 240 -83 l 240 -128 q 215 -265 240 -211 q 133 -361 189 -319 z "},"̧":{"ha":0,"x_min":294,"x_max":540,"o":"m 392 -265 q 345 -262 372 -265 q 294 -253 318 -260 l 294 -185 q 340 -192 314 -190 q 385 -194 367 -194 q 436 -183 419 -194 q 453 -146 453 -171 q 436 -112 453 -124 q 385 -100 419 -100 l 353 -100 l 353 -64 l 389 15 l 458 15 l 422 -64 q 509 -88 478 -64 q 540 -156 540 -112 q 502 -235 540 -206 q 392 -265 464 -265 z "},"̨":{"ha":0,"x_min":303,"x_max":532,"o":"m 436 -265 q 336 -240 369 -265 q 303 -161 303 -214 q 343 -69 303 -111 q 446 0 383 -28 l 532 0 q 430 -71 469 -29 q 390 -146 390 -112 q 444 -187 390 -187 q 486 -185 463 -187 q 532 -179 510 -183 l 532 -253 q 481 -262 507 -260 q 436 -265 456 -265 z "},"¨":{"ha":833,"x_min":214,"x_max":621,"o":"m 550 794 q 498 814 517 794 q 479 863 479 833 q 498 910 479 892 q 550 929 517 929 q 601 910 582 929 q 621 863 621 892 q 601 814 621 833 q 550 794 582 794 m 285 794 q 233 814 251 794 q 214 863 214 833 q 233 910 214 892 q 285 929 251 929 q 336 910 317 929 q 356 863 356 892 q 336 814 356 833 q 285 794 317 794 z "},"˙":{"ha":833,"x_min":346,"x_max":488,"o":"m 417 794 q 365 814 385 794 q 346 863 346 833 q 365 910 346 892 q 417 929 385 929 q 468 910 449 929 q 488 863 488 892 q 468 814 488 833 q 417 794 449 794 z "},"`":{"ha":833,"x_min":286,"x_max":518,"o":"m 428 757 l 286 967 l 418 967 l 518 757 l 428 757 z "},"´":{"ha":833,"x_min":317,"x_max":549,"o":"m 317 757 l 417 967 l 549 967 l 407 757 l 317 757 z "},"˝":{"ha":833,"x_min":200,"x_max":664,"o":"m 432 757 l 532 967 l 664 967 l 522 757 l 432 757 m 200 757 l 300 967 l 433 967 l 292 757 l 200 757 z "},"ˆ":{"ha":833,"x_min":215,"x_max":619,"o":"m 215 757 l 356 967 l 479 967 l 619 757 l 517 757 l 417 896 l 318 757 l 215 757 z "},"ˇ":{"ha":833,"x_min":215,"x_max":619,"o":"m 356 757 l 215 967 l 318 967 l 417 829 l 517 967 l 619 967 l 479 757 l 356 757 z "},"˘":{"ha":833,"x_min":229,"x_max":606,"o":"m 417 743 q 275 794 321 743 q 229 925 229 844 l 229 967 l 315 967 l 315 925 q 341 856 315 882 q 417 831 367 831 q 492 856 467 831 q 518 925 518 882 l 518 967 l 606 967 l 606 925 q 559 794 606 844 q 417 743 513 743 z "},"˚":{"ha":833,"x_min":258,"x_max":576,"o":"m 417 715 q 301 757 344 715 q 258 863 258 799 q 301 967 258 926 q 417 1008 344 1008 q 533 967 489 1008 q 576 863 576 926 q 533 757 576 799 q 417 715 489 715 m 417 776 q 481 800 457 776 q 504 863 504 824 q 481 924 504 900 q 417 947 457 947 q 353 924 378 947 q 329 863 329 900 q 353 800 329 824 q 417 776 376 776 z "},"˜":{"ha":833,"x_min":201,"x_max":633,"o":"m 201 774 q 215 872 201 833 q 256 931 228 911 q 325 951 283 951 q 381 938 356 951 q 428 906 407 924 q 470 874 450 888 q 507 860 490 860 q 540 880 528 860 q 554 951 551 900 l 633 951 q 619 853 633 893 q 578 794 606 814 q 508 774 551 774 q 453 788 479 774 q 406 819 428 801 q 364 850 383 836 q 326 864 344 864 q 295 844 307 864 q 281 774 283 825 l 201 774 z "},"¯":{"ha":833,"x_min":229,"x_max":606,"o":"m 229 818 l 229 907 l 606 907 l 606 818 l 229 818 z "},"¸":{"ha":833,"x_min":294,"x_max":540,"o":"m 392 -265 q 345 -262 372 -265 q 294 -253 318 -260 l 294 -185 q 340 -192 314 -190 q 385 -194 367 -194 q 436 -183 419 -194 q 453 -146 453 -171 q 436 -112 453 -124 q 385 -100 419 -100 l 353 -100 l 353 -64 l 389 15 l 458 15 l 422 -64 q 509 -88 478 -64 q 540 -156 540 -112 q 502 -235 540 -206 q 392 -265 464 -265 z "},"˛":{"ha":833,"x_min":303,"x_max":532,"o":"m 436 -265 q 336 -240 369 -265 q 303 -161 303 -214 q 343 -69 303 -111 q 446 0 383 -28 l 532 0 q 430 -71 469 -29 q 390 -146 390 -112 q 444 -187 390 -187 q 486 -185 463 -187 q 532 -179 510 -183 l 532 -253 q 481 -262 507 -260 q 436 -265 456 -265 z "}}}
